<svg version="1.1" id="Layer_1" xmlns="http://www.w3.org/2000/svg" xmlns:xlink="http://www.w3.org/1999/xlink" x="0px" y="0px"
	 width="100%" viewBox="0 0 384 384" enable-background="new 0 0 384 384" xml:space="preserve">
<path fill="#000000" opacity="1.000000" stroke="none" 
	d="
M217.000000,385.000000 
	C144.666687,385.000000 72.833359,385.000000 1.000029,385.000000 
	C1.000019,257.000031 1.000019,129.000076 1.000010,1.000080 
	C128.999939,1.000054 256.999878,1.000054 384.999878,1.000027 
	C384.999908,128.999924 384.999908,256.999847 384.999939,384.999878 
	C329.166656,385.000000 273.333344,385.000000 217.000000,385.000000 
M281.976593,26.467922 
	C277.741058,24.543964 273.464355,22.705202 269.277069,20.681379 
	C250.603149,11.655737 230.666077,6.926198 210.222672,5.259545 
	C197.253922,4.202263 183.998154,4.882018 171.022293,6.233918 
	C159.706177,7.412895 148.493011,10.199882 137.429810,13.038257 
	C121.610359,17.096897 107.163391,24.414484 93.252190,32.929321 
	C74.718948,44.273239 58.889328,58.708221 45.342438,75.479279 
	C35.021160,88.257034 26.613234,102.390137 20.017794,117.558701 
	C11.910007,136.205429 6.762045,155.685745 5.245776,175.833755 
	C4.268683,188.817261 4.879268,202.061478 6.234980,215.036652 
	C7.417172,226.351105 10.215989,237.561234 13.061022,248.621841 
	C17.088114,264.277924 24.326147,278.578857 32.715393,292.380981 
	C44.093273,311.100006 58.623249,327.052032 75.533165,340.684235 
	C88.185974,350.884521 102.173996,359.175568 117.189026,365.759552 
	C135.985672,374.001740 155.584488,379.416016 175.893127,380.704865 
	C191.468414,381.693359 207.214600,381.817169 222.887253,379.156769 
	C241.437027,376.007965 259.196869,370.693207 276.007629,362.426056 
	C302.156769,349.566498 324.203003,331.551636 342.063538,308.460358 
	C352.862396,294.498840 361.605133,279.419891 368.084229,262.957489 
	C374.266235,247.249969 379.190979,231.203293 379.876953,214.310532 
	C380.525513,198.338867 381.357361,182.169891 379.622620,166.360504 
	C377.665039,148.520523 372.175049,131.318146 364.555206,114.759888 
	C356.563538,97.393700 346.384125,81.616066 333.789520,67.455902 
	C319.147675,50.994041 302.072998,37.377632 281.976593,26.467922 
z"/>
<path fill="#FFFFFF" opacity="1.000000" stroke="none" 
	d="
M282.268921,26.714191 
	C302.072998,37.377632 319.147675,50.994041 333.789520,67.455902 
	C346.384125,81.616066 356.563538,97.393700 364.555206,114.759888 
	C372.175049,131.318146 377.665039,148.520523 379.622620,166.360504 
	C381.357361,182.169891 380.525513,198.338867 379.876953,214.310532 
	C379.190979,231.203293 374.266235,247.249969 368.084229,262.957489 
	C361.605133,279.419891 352.862396,294.498840 342.063538,308.460358 
	C324.203003,331.551636 302.156769,349.566498 276.007629,362.426056 
	C259.196869,370.693207 241.437027,376.007965 222.887253,379.156769 
	C207.214600,381.817169 191.468414,381.693359 175.893127,380.704865 
	C155.584488,379.416016 135.985672,374.001740 117.189026,365.759552 
	C102.173996,359.175568 88.185974,350.884521 75.533165,340.684235 
	C58.623249,327.052032 44.093273,311.100006 32.715393,292.380981 
	C24.326147,278.578857 17.088114,264.277924 13.061022,248.621841 
	C10.215989,237.561234 7.417172,226.351105 6.234980,215.036652 
	C4.879268,202.061478 4.268683,188.817261 5.245776,175.833755 
	C6.762045,155.685745 11.910007,136.205429 20.017794,117.558701 
	C26.613234,102.390137 35.021160,88.257034 45.342438,75.479279 
	C58.889328,58.708221 74.718948,44.273239 93.252190,32.929321 
	C107.163391,24.414484 121.610359,17.096897 137.429810,13.038257 
	C148.493011,10.199882 159.706177,7.412895 171.022293,6.233918 
	C183.998154,4.882018 197.253922,4.202263 210.222672,5.259545 
	C230.666077,6.926198 250.603149,11.655737 269.277069,20.681379 
	C273.464355,22.705202 277.741058,24.543964 282.268921,26.714191 
M253.080124,184.056641 
	C253.270218,195.584488 252.593887,206.934326 247.690948,217.688156 
	C238.440598,237.977264 216.116043,256.169556 183.307648,252.180054 
	C153.353836,246.682037 133.122177,222.597656 133.021347,192.094223 
	C132.928268,163.934128 133.064255,135.773270 132.975845,107.613136 
	C132.922287,90.549255 119.754654,77.115448 103.243202,77.009224 
	C86.453728,76.901207 73.076729,90.334778 73.024422,107.625816 
	C72.937714,136.285828 72.880638,164.947021 73.043793,193.606384 
	C73.185112,218.431137 80.323807,241.178528 94.608902,261.511841 
	C105.881729,277.557495 119.911064,290.574158 138.209274,299.666656 
	C159.690628,310.564697 182.347137,314.759033 206.360474,312.195190 
	C254.993896,307.002686 296.907104,271.149902 308.880493,223.524963 
	C311.291107,213.936630 312.603851,203.858063 312.807922,193.972183 
	C313.285126,170.855972 312.782043,147.719528 312.920776,123.761856 
	C312.937164,117.772987 313.134796,111.778053 312.934692,105.796432 
	C312.414642,90.251701 299.443604,77.446289 283.989410,77.024788 
	C268.159393,76.593040 253.667053,88.626678 253.284332,104.320366 
	C252.643845,130.583649 253.204636,156.876236 253.080124,184.056641 
M157.487885,187.244873 
	C154.739838,207.826981 167.747391,225.433807 188.129654,228.721115 
	C207.138748,231.786942 225.404495,217.938095 228.703842,197.958344 
	C231.811172,179.141327 218.396851,161.124771 198.531174,157.433929 
	C179.988113,153.988846 161.698105,166.970886 157.487885,187.244873 
z"/>
<path fill="#35A853" opacity="1.000000" stroke="none" 
	d="
M137.798660,299.085052 
	C119.911064,290.574158 105.881729,277.557495 94.608902,261.511841 
	C80.323807,241.178528 73.185112,218.431137 73.043793,193.606384 
	C72.880638,164.947021 72.937714,136.285828 73.024422,107.625816 
	C73.076729,90.334778 86.453728,76.901207 103.243202,77.009224 
	C119.754654,77.115448 132.922287,90.549255 132.975845,107.613136 
	C133.064255,135.773270 132.928268,163.934128 133.021347,192.094223 
	C133.122177,222.597656 153.353836,246.682037 183.454193,252.556946 
	C168.333374,268.317566 153.066010,283.701294 137.798660,299.085052 
z"/>
<path fill="#FBBC05" opacity="1.000000" stroke="none" 
	d="
M138.003967,299.375854 
	C153.066010,283.701294 168.333374,268.317566 183.833145,252.730957 
	C216.116043,256.169556 238.440598,237.977264 247.690948,217.688156 
	C252.593887,206.934326 253.270218,195.584488 253.439682,183.417450 
	C271.921051,164.678436 290.036102,146.571777 308.178070,128.492188 
	C309.580444,127.094612 311.172211,125.887123 312.675934,124.591278 
	C312.782043,147.719528 313.285126,170.855972 312.807922,193.972183 
	C312.603851,203.858063 311.291107,213.936630 308.880493,223.524963 
	C296.907104,271.149902 254.993896,307.002686 206.360474,312.195190 
	C182.347137,314.759033 159.690628,310.564697 138.003967,299.375854 
z"/>
<path fill="#EA4436" opacity="1.000000" stroke="none" 
	d="
M312.798340,124.176567 
	C311.172211,125.887123 309.580444,127.094612 308.178070,128.492188 
	C290.036102,146.571777 271.921051,164.678436 253.529526,182.967377 
	C253.204636,156.876236 252.643845,130.583649 253.284332,104.320366 
	C253.667053,88.626678 268.159393,76.593040 283.989410,77.024788 
	C299.443604,77.446289 312.414642,90.251701 312.934692,105.796432 
	C313.134796,111.778053 312.937164,117.772987 312.798340,124.176567 
z"/>
<path fill="#4386F4" opacity="1.000000" stroke="none" 
	d="
M157.595352,186.829178 
	C161.698105,166.970886 179.988113,153.988846 198.531174,157.433929 
	C218.396851,161.124771 231.811172,179.141327 228.703842,197.958344 
	C225.404495,217.938095 207.138748,231.786942 188.129654,228.721115 
	C167.747391,225.433807 154.739838,207.826981 157.595352,186.829178 
z"/>
</svg>