<?xml version="1.0" encoding="UTF-8"?>
<svg version="1.1" xmlns="http://www.w3.org/2000/svg" width="1024" height="1024">
<path d="M0 0 C337.92 0 675.84 0 1024 0 C1024 337.92 1024 675.84 1024 1024 C686.08 1024 348.16 1024 0 1024 C0 686.08 0 348.16 0 0 Z " fill="#FBFBFB" transform="translate(0,0)"/>
<path d="M0 0 C1.52014668 -0.0037877 3.0402899 -0.00929145 4.5604248 -0.01637268 C8.66980796 -0.03028232 12.77877035 -0.01919099 16.88812995 -0.00266147 C21.1952645 0.01123014 25.50237565 0.00472457 29.80952454 0.00120544 C37.03796135 -0.00149256 44.2662317 0.01194661 51.49462891 0.03515625 C59.84833512 0.06179365 68.20176366 0.063502 76.55549783 0.05176789 C84.6008806 0.04098708 92.64616305 0.04717759 100.69153786 0.06132317 C104.11209297 0.06707731 107.53257454 0.06700487 110.95313072 0.06225777 C114.97927837 0.05748338 119.00512202 0.06760856 123.03121185 0.08921242 C124.50782305 0.09477308 125.98446351 0.09525218 127.46107674 0.09025955 C129.47765389 0.08429651 131.49426056 0.09865927 133.51078796 0.11402893 C134.63881175 0.11645883 135.76683554 0.11888872 136.92904186 0.12139225 C141.63939856 0.71584285 144.72697445 3.04177697 148.02932739 6.32098389 C148.5871994 6.87032593 149.14507141 7.41966797 149.71984863 7.98565674 C150.31430786 8.58102234 150.90876709 9.17638794 151.52124023 9.78979492 C152.4807106 10.73918945 152.4807106 10.73918945 153.45956421 11.70776367 C155.56600861 13.79525784 157.66487393 15.89017083 159.76293945 17.98608398 C161.22819566 19.44491088 162.69360112 20.90358787 164.15914917 22.36212158 C167.22743065 25.4184382 170.29155986 28.47885071 173.35327148 31.54174805 C177.27166308 35.46034293 181.20363367 39.36499662 185.13929939 43.26623154 C188.16935987 46.27402648 191.1902578 49.29089671 194.20867538 52.3103714 C195.65430117 53.75364129 197.10316159 55.19367894 198.55533218 56.63036346 C200.58747951 58.64285658 202.60649283 60.66770106 204.62280273 62.69604492 C205.22131042 63.2833136 205.81981812 63.87058228 206.4364624 64.47564697 C207.26481094 65.31657898 207.26481094 65.31657898 208.1098938 66.17449951 C208.58734102 66.6508572 209.06478825 67.12721489 209.55670357 67.61800766 C213.98920975 73.64252378 214.37699972 79.15024082 214.32357788 86.38752747 C214.33059784 87.85599429 214.33059784 87.85599429 214.33775961 89.35412711 C214.34970021 92.62587207 214.34025573 95.89719744 214.33081055 99.16894531 C214.33487673 101.51825708 214.34021887 103.86756693 214.34674072 106.21687317 C214.36041671 112.5930075 214.3551138 118.96899619 214.34560347 125.34513307 C214.33877609 131.34461437 214.34398903 137.34408235 214.34838505 143.34356328 C214.35693476 155.95392743 214.34711245 168.56422611 214.33098395 181.17457952 C214.31759045 191.98067699 214.31990166 202.78667773 214.33374023 213.59277344 C214.34981956 226.15440086 214.35610103 238.71597086 214.34690344 251.27760714 C214.34216994 257.92220495 214.34158735 264.56674893 214.35151291 271.21134377 C214.36019723 277.46174287 214.35413363 283.7119599 214.33683014 289.9623394 C214.33287265 292.2528109 214.33398666 294.5432978 214.34061813 296.83376312 C214.34885303 299.96769354 214.33848808 303.10104569 214.32357788 306.23493958 C214.33027005 307.13486391 214.33696221 308.03478825 214.34385717 308.96198303 C214.23856045 320.42418542 210.67012966 328.61056335 202.75512695 336.75170898 C192.1752863 343.33472094 181.61135023 343.07033925 169.58496094 343.00341797 C167.63899343 343.00720639 165.69302863 343.01271073 163.74707031 343.01979065 C158.48883766 343.03369326 153.23093412 343.02261241 147.97271991 343.00607944 C142.45609993 342.99217583 136.93949802 342.99869498 131.42286682 343.00221252 C122.16190317 343.00491023 112.90106945 342.9914761 103.64013672 342.96826172 C92.94901234 342.94164697 82.25810501 342.93990908 71.56695884 342.95165008 C61.26037612 342.96244644 50.95387153 342.9562267 40.647295 342.9420948 C36.27074386 342.93635192 31.89425023 342.93640428 27.51769829 342.9411602 C22.36049307 342.94594878 17.20352415 342.93575054 12.04636383 342.91420555 C10.1590333 342.90866339 8.27167994 342.90814863 6.38434792 342.91315842 C-8.85464062 342.94852274 -19.49390677 341.87055103 -30.80737305 330.81420898 C-36.81136554 323.00252974 -37.64310147 313.61892289 -37.57203674 304.12278748 C-37.57898227 302.92396362 -37.5859278 301.72513976 -37.5930838 300.48998791 C-37.60811812 297.19328974 -37.60545462 293.89717896 -37.59493077 290.60048163 C-37.58789938 287.03326772 -37.60396619 283.46614331 -37.6169281 279.8989563 C-37.63850643 272.92333461 -37.63845736 265.94787645 -37.63030256 258.97223239 C-37.62398913 253.30084445 -37.62515186 247.629504 -37.63157463 241.95811653 C-37.63247629 241.14931331 -37.63337794 240.34051008 -37.63430692 239.50719767 C-37.63615821 237.86387084 -37.63802077 236.22054403 -37.63989448 234.57721723 C-37.65645088 219.18797282 -37.64777154 203.79882024 -37.6309089 188.40958137 C-37.61620781 174.34256118 -37.63084987 160.27575451 -37.65967906 146.2087618 C-37.68909666 131.74644328 -37.70003885 117.28422323 -37.69049686 102.82187611 C-37.68947436 101.18507931 -37.68847975 99.5482825 -37.68751335 97.91148567 C-37.68703696 97.10625335 -37.68656057 96.30102103 -37.68606975 95.47138773 C-37.68390906 89.80928605 -37.693691 84.14727799 -37.70828438 78.48519707 C-37.72583067 71.58148 -37.7256573 64.67803524 -37.70293272 57.77432876 C-37.69181223 54.2549586 -37.6885775 50.73606778 -37.70723343 47.21671867 C-37.72316794 43.39523855 -37.70820595 39.57506552 -37.68556213 35.75364685 C-37.69739786 34.65023073 -37.70923359 33.54681461 -37.72142798 32.40996164 C-37.61759409 23.76890808 -35.17016762 17.51425208 -29.8815918 10.69702148 C-29.17647461 10.01381836 -28.47135742 9.33061523 -27.74487305 8.62670898 C-26.69879883 7.57870117 -26.69879883 7.57870117 -25.6315918 6.50952148 C-17.33608486 0.03927783 -10.23102729 -0.07275805 0 0 Z " fill="#FAFBFB" transform="translate(171.057373046875,340.498291015625)"/>
<path d="M0 0 C1.52014668 -0.0037877 3.0402899 -0.00929145 4.5604248 -0.01637268 C8.66980796 -0.03028232 12.77877035 -0.01919099 16.88812995 -0.00266147 C21.1952645 0.01123014 25.50237565 0.00472457 29.80952454 0.00120544 C37.03796135 -0.00149256 44.2662317 0.01194661 51.49462891 0.03515625 C59.84833512 0.06179365 68.20176366 0.063502 76.55549783 0.05176789 C84.6008806 0.04098708 92.64616305 0.04717759 100.69153786 0.06132317 C104.11209297 0.06707731 107.53257454 0.06700487 110.95313072 0.06225777 C114.97927837 0.05748338 119.00512202 0.06760856 123.03121185 0.08921242 C124.50782305 0.09477308 125.98446351 0.09525218 127.46107674 0.09025955 C129.47765389 0.08429651 131.49426056 0.09865927 133.51078796 0.11402893 C134.63881175 0.11645883 135.76683554 0.11888872 136.92904186 0.12139225 C141.63939856 0.71584285 144.72697445 3.04177697 148.02932739 6.32098389 C148.5871994 6.87032593 149.14507141 7.41966797 149.71984863 7.98565674 C150.31430786 8.58102234 150.90876709 9.17638794 151.52124023 9.78979492 C152.4807106 10.73918945 152.4807106 10.73918945 153.45956421 11.70776367 C155.56600861 13.79525784 157.66487393 15.89017083 159.76293945 17.98608398 C161.22819566 19.44491088 162.69360112 20.90358787 164.15914917 22.36212158 C167.22743065 25.4184382 170.29155986 28.47885071 173.35327148 31.54174805 C177.27166308 35.46034293 181.20363367 39.36499662 185.13929939 43.26623154 C188.16935987 46.27402648 191.1902578 49.29089671 194.20867538 52.3103714 C195.65430117 53.75364129 197.10316159 55.19367894 198.55533218 56.63036346 C200.58747951 58.64285658 202.60649283 60.66770106 204.62280273 62.69604492 C205.22131042 63.2833136 205.81981812 63.87058228 206.4364624 64.47564697 C207.26481094 65.31657898 207.26481094 65.31657898 208.1098938 66.17449951 C208.58734102 66.6508572 209.06478825 67.12721489 209.55670357 67.61800766 C213.98920975 73.64252378 214.37699972 79.15024082 214.32357788 86.38752747 C214.33059784 87.85599429 214.33059784 87.85599429 214.33775961 89.35412711 C214.34970021 92.62587207 214.34025573 95.89719744 214.33081055 99.16894531 C214.33487673 101.51825708 214.34021887 103.86756693 214.34674072 106.21687317 C214.36041671 112.5930075 214.3551138 118.96899619 214.34560347 125.34513307 C214.33877609 131.34461437 214.34398903 137.34408235 214.34838505 143.34356328 C214.35693476 155.95392743 214.34711245 168.56422611 214.33098395 181.17457952 C214.31759045 191.98067699 214.31990166 202.78667773 214.33374023 213.59277344 C214.34981956 226.15440086 214.35610103 238.71597086 214.34690344 251.27760714 C214.34216994 257.92220495 214.34158735 264.56674893 214.35151291 271.21134377 C214.36019723 277.46174287 214.35413363 283.7119599 214.33683014 289.9623394 C214.33287265 292.2528109 214.33398666 294.5432978 214.34061813 296.83376312 C214.34885303 299.96769354 214.33848808 303.10104569 214.32357788 306.23493958 C214.33027005 307.13486391 214.33696221 308.03478825 214.34385717 308.96198303 C214.23856045 320.42418542 210.67012966 328.61056335 202.75512695 336.75170898 C192.1752863 343.33472094 181.61135023 343.07033925 169.58496094 343.00341797 C167.63899343 343.00720639 165.69302863 343.01271073 163.74707031 343.01979065 C158.48883766 343.03369326 153.23093412 343.02261241 147.97271991 343.00607944 C142.45609993 342.99217583 136.93949802 342.99869498 131.42286682 343.00221252 C122.16190317 343.00491023 112.90106945 342.9914761 103.64013672 342.96826172 C92.94901234 342.94164697 82.25810501 342.93990908 71.56695884 342.95165008 C61.26037612 342.96244644 50.95387153 342.9562267 40.647295 342.9420948 C36.27074386 342.93635192 31.89425023 342.93640428 27.51769829 342.9411602 C22.36049307 342.94594878 17.20352415 342.93575054 12.04636383 342.91420555 C10.1590333 342.90866339 8.27167994 342.90814863 6.38434792 342.91315842 C-8.85464062 342.94852274 -19.49390677 341.87055103 -30.80737305 330.81420898 C-36.81136554 323.00252974 -37.64310147 313.61892289 -37.57203674 304.12278748 C-37.57898227 302.92396362 -37.5859278 301.72513976 -37.5930838 300.48998791 C-37.60811812 297.19328974 -37.60545462 293.89717896 -37.59493077 290.60048163 C-37.58789938 287.03326772 -37.60396619 283.46614331 -37.6169281 279.8989563 C-37.63850643 272.92333461 -37.63845736 265.94787645 -37.63030256 258.97223239 C-37.62398913 253.30084445 -37.62515186 247.629504 -37.63157463 241.95811653 C-37.63247629 241.14931331 -37.63337794 240.34051008 -37.63430692 239.50719767 C-37.63615821 237.86387084 -37.63802077 236.22054403 -37.63989448 234.57721723 C-37.65645088 219.18797282 -37.64777154 203.79882024 -37.6309089 188.40958137 C-37.61620781 174.34256118 -37.63084987 160.27575451 -37.65967906 146.2087618 C-37.68909666 131.74644328 -37.70003885 117.28422323 -37.69049686 102.82187611 C-37.68947436 101.18507931 -37.68847975 99.5482825 -37.68751335 97.91148567 C-37.68703696 97.10625335 -37.68656057 96.30102103 -37.68606975 95.47138773 C-37.68390906 89.80928605 -37.693691 84.14727799 -37.70828438 78.48519707 C-37.72583067 71.58148 -37.7256573 64.67803524 -37.70293272 57.77432876 C-37.69181223 54.2549586 -37.6885775 50.73606778 -37.70723343 47.21671867 C-37.72316794 43.39523855 -37.70820595 39.57506552 -37.68556213 35.75364685 C-37.69739786 34.65023073 -37.70923359 33.54681461 -37.72142798 32.40996164 C-37.61759409 23.76890808 -35.17016762 17.51425208 -29.8815918 10.69702148 C-29.17647461 10.01381836 -28.47135742 9.33061523 -27.74487305 8.62670898 C-26.69879883 7.57870117 -26.69879883 7.57870117 -25.6315918 6.50952148 C-17.33608486 0.03927783 -10.23102729 -0.07275805 0 0 Z M-15.05737305 26.50170898 C-15.65086097 28.88595607 -15.65086097 28.88595607 -15.56073761 31.51176453 C-15.5711686 32.52744664 -15.58159959 33.54312876 -15.59234667 34.58958912 C-15.58342378 35.70358428 -15.57450089 36.81757944 -15.56530762 37.96533203 C-15.57154758 39.15015765 -15.57778754 40.33498327 -15.58421659 41.5557127 C-15.59742739 44.84573129 -15.59265154 48.13483875 -15.58027172 51.4248023 C-15.57123498 54.97224942 -15.58518407 58.51961593 -15.59619141 62.06704712 C-15.61399603 69.01689119 -15.61012806 75.96656266 -15.59854084 82.91641355 C-15.5895144 88.56370541 -15.58827909 94.21094884 -15.59263611 99.85824585 C-15.59324904 100.66140376 -15.59386197 101.46456167 -15.59449348 102.29205769 C-15.59577235 103.92355865 -15.59706921 105.55505959 -15.59838384 107.18656051 C-15.60979533 122.49214061 -15.59666704 137.79762495 -15.57518238 153.10318935 C-15.55731086 166.24161105 -15.56041481 179.3798914 -15.57885742 192.51831055 C-15.60025412 207.7683905 -15.60869664 223.01838648 -15.59640837 238.26847935 C-15.59513414 239.89404359 -15.59387666 241.51960785 -15.59263611 243.14517212 C-15.59201901 243.9450213 -15.5914019 244.74487048 -15.5907661 245.56895751 C-15.58730959 251.2107362 -15.59314801 256.85246172 -15.60255432 262.49423218 C-15.61376237 269.36788794 -15.61075956 276.24136095 -15.58943135 283.11499572 C-15.57890465 286.62338303 -15.57482623 290.13146543 -15.58802795 293.63985062 C-15.60210941 297.43943556 -15.58531829 301.23851907 -15.56530762 305.03808594 C-15.5742305 306.1520811 -15.58315339 307.26607626 -15.59234667 308.41382885 C-15.58191568 309.42951097 -15.57148469 310.44519308 -15.56073761 311.49165344 C-15.5600882 312.36891744 -15.55943879 313.24618143 -15.5587697 314.15002918 C-14.88249131 317.32194951 -13.58121098 318.52400777 -11.05737305 320.50170898 C-8.25630764 320.89457782 -5.84830841 321.04251906 -3.04846191 321.00964355 C-2.23523956 321.01588352 -1.4220172 321.02212348 -0.58415174 321.02855253 C2.14446929 321.04452446 4.8722022 321.03186212 7.60083008 321.01928711 C9.55550153 321.02470637 11.51016889 321.03182792 13.46482849 321.04052734 C18.77677583 321.05878693 24.08841296 321.05168224 29.40036583 321.039011 C34.95454125 321.02889701 40.50868977 321.03827222 46.06286621 321.04455566 C55.39083637 321.05183673 64.71867992 321.04223228 74.04663086 321.02319336 C84.83717319 321.0014238 95.62741324 321.00847484 106.41794825 321.03049898 C115.6757906 321.04863986 124.93354185 321.05121772 134.19139624 321.0407443 C139.72364095 321.03450217 145.2557435 321.03369356 150.78797913 321.04689026 C155.98862449 321.058429 161.1888794 321.05045908 166.3894825 321.02731323 C168.30029209 321.02201558 170.21113443 321.0235579 172.12193108 321.03236389 C174.72630577 321.0432614 177.32942179 321.02962665 179.93371582 321.00964355 C180.69363469 321.01856644 181.45355355 321.02748933 182.23650026 321.03668261 C185.44524682 320.98877831 187.63361941 320.68470872 190.41312027 319.03863907 C192.71707401 315.21716537 192.48226089 311.78772137 192.42364502 307.40289307 C192.42877157 306.00731694 192.42877157 306.00731694 192.43400168 304.58354735 C192.44060269 301.45862607 192.4185675 298.33455925 192.39672852 295.2097168 C192.39560052 292.97270223 192.39623296 290.73568619 192.39849854 288.49867249 C192.39964847 282.41839562 192.37609363 276.33843295 192.34820271 270.25822926 C192.32323577 263.90676774 192.32085076 257.5552994 192.31610107 251.20379639 C192.30507218 240.54083158 192.28006965 229.87799119 192.24438477 219.21508789 C192.20766772 208.23234637 192.17935448 197.24963621 192.16235352 186.2668457 C192.16130262 185.5898486 192.16025173 184.9128515 192.15916899 184.21533933 C192.15394883 180.81903789 192.148894 177.42273623 192.14392138 174.02643442 C192.10245564 145.85144557 192.03170663 117.67658446 191.94262695 89.50170898 C191.2293222 89.49806335 190.51601746 89.49441772 189.78109741 89.49066162 C183.04270636 89.45271774 176.3047702 89.39579319 169.56671715 89.31780624 C166.10297184 89.27837903 162.63947891 89.24616778 159.17553711 89.23071289 C155.18871759 89.21260346 151.20259739 89.16263087 147.21606445 89.11108398 C145.97835297 89.10985535 144.74064148 89.10862671 143.46542358 89.10736084 C132.52934137 88.92158056 132.52934137 88.92158056 127.94262695 84.50170898 C125.86914332 81.22207244 125.67391211 78.56690456 125.6237793 74.72338867 C125.59397476 72.98203644 125.59397476 72.98203644 125.56356812 71.20550537 C125.55201691 69.95747131 125.5404657 68.70943726 125.52856445 67.42358398 C125.49951523 65.50101776 125.49951523 65.50101776 125.46987915 63.53961182 C125.41862068 60.13996534 125.37896166 56.74027933 125.34173584 53.3404541 C125.30165654 49.86806511 125.25058218 46.39583965 125.20043945 42.92358398 C125.10375482 36.1164119 125.01932631 29.30913479 124.94262695 22.50170898 C107.27955494 22.40829981 89.61654696 22.33774662 71.9532814 22.2944603 C63.75205482 22.27382817 55.55098164 22.2456953 47.34985352 22.19995117 C40.20238893 22.16010313 33.05503542 22.1342809 25.90746284 22.12535501 C22.12223292 22.12013675 18.33732082 22.10785891 14.55219269 22.07878876 C10.98989467 22.05165145 7.42804556 22.04326037 3.86565399 22.04927826 C1.93405943 22.04765201 0.00251383 22.02612028 -1.92895508 22.00402832 C-3.07877869 22.00952698 -4.22860229 22.01502563 -5.41326904 22.02069092 C-6.41249264 22.01700375 -7.41171623 22.01331657 -8.44121933 22.00951767 C-11.84881908 22.65060806 -12.8810524 23.84255881 -15.05737305 26.50170898 Z " fill="#0C1F36" transform="translate(171.057373046875,340.498291015625)"/>
<path d="M0 0 C6.97529813 5.69002247 11.10376974 12.8710803 13.03515625 21.66015625 C13.75623651 35.77668908 13.25711051 46.57662188 4.3515625 58.171875 C-1.31354242 64.25732498 -8.97700451 68.15191671 -17.26171875 68.99609375 C-24.87004547 69.08216079 -31.29747679 68.57674313 -37.96484375 64.66015625 C-38.95484375 63.67015625 -39.94484375 62.68015625 -40.96484375 61.66015625 C-41.29484375 71.56015625 -41.62484375 81.46015625 -41.96484375 91.66015625 C-48.89484375 91.66015625 -55.82484375 91.66015625 -62.96484375 91.66015625 C-62.96484375 59.98015625 -62.96484375 28.30015625 -62.96484375 -4.33984375 C-56.36484375 -4.33984375 -49.76484375 -4.33984375 -42.96484375 -4.33984375 C-42.63484375 -2.68984375 -42.30484375 -1.03984375 -41.96484375 0.66015625 C-41.48015625 0.25023437 -40.99546875 -0.1596875 -40.49609375 -0.58203125 C-28.0464637 -10.58961848 -12.73414302 -9.14073405 0 0 Z " fill="#0D2137" transform="translate(666.96484375,604.33984375)"/>
<path d="M0 0 C6.90171153 5.09972883 11.65086955 12.67778655 13.90625 20.95703125 C15.7052462 33.80700413 15.05027245 46.06545023 7.5390625 57.00390625 C0.66257304 65.43538076 -7.41810246 69.37831208 -18.0859375 70.56640625 C-27.95348538 71.11523858 -33.10379191 69.03069424 -40.7109375 62.69140625 C-41.0409375 71.93140625 -41.3709375 81.17140625 -41.7109375 90.69140625 C-48.3109375 90.69140625 -54.9109375 90.69140625 -61.7109375 90.69140625 C-61.7109375 59.67140625 -61.7109375 28.65140625 -61.7109375 -3.30859375 C-55.4409375 -3.30859375 -49.1709375 -3.30859375 -42.7109375 -3.30859375 C-42.3809375 -1.32859375 -42.0509375 0.65140625 -41.7109375 2.69140625 C-41.31003906 2.29308594 -40.90914062 1.89476562 -40.49609375 1.484375 C-28.73611775 -9.47560263 -12.98865917 -8.34410767 0 0 Z " fill="#0D1F35" transform="translate(634.7109375,501.30859375)"/>
<path d="M0 0 C1.20148682 0.01135986 1.20148682 0.01135986 2.42724609 0.02294922 C8.44819297 0.19098135 13.1011959 1.05722707 18.1875 4.4375 C18.868125 4.83839844 19.54875 5.23929688 20.25 5.65234375 C28.68439023 11.163451 33.5491928 20.08993861 35.75390625 29.7578125 C37.39188157 39.8807951 36.03042226 50.36288102 30.5625 59.1875 C24.84377991 66.94862012 17.78304316 73.33275552 8.1875 75.4375 C-1.22194881 76.50444614 -8.91065113 75.92720553 -16.8125 70.4375 C-17.4725 69.7775 -18.1325 69.1175 -18.8125 68.4375 C-19.1425 78.3375 -19.4725 88.2375 -19.8125 98.4375 C-26.4125 98.4375 -33.0125 98.4375 -39.8125 98.4375 C-39.8125 66.7575 -39.8125 35.0775 -39.8125 2.4375 C-33.5425 2.4375 -27.2725 2.4375 -20.8125 2.4375 C-20.4825 4.4175 -20.1525 6.3975 -19.8125 8.4375 C-19.11125 7.674375 -18.41 6.91125 -17.6875 6.125 C-12.13034588 0.93026898 -7.33140735 -0.09632506 0 0 Z " fill="#0D2035" transform="translate(558.8125,597.5625)"/>
<path d="M0 0 C8.56048507 5.99073346 14.05981986 13.47446552 16.76953125 23.64453125 C18.10891437 35.40780912 16.58556651 45.65208189 9.58203125 55.45703125 C3.10012083 63.16636727 -5.18150651 67.85745199 -15.23779297 68.84082031 C-27.51406984 69.70431424 -37.76810545 68.39423125 -47.60546875 60.33203125 C-56.62308609 51.63312387 -60.44673197 43.39061858 -60.73046875 30.76953125 C-60.68128772 20.53987776 -57.34668945 11.81590584 -50.25 4.39453125 C-36.45154974 -7.56234634 -15.67515976 -9.52588518 0 0 Z " fill="#0D1F35" transform="translate(717.23046875,501.35546875)"/>
<path d="M0 0 C0.92578857 0.01281006 1.85157715 0.02562012 2.80541992 0.03881836 C12.42510046 0.32507287 19.7248802 2.55067419 26.74688721 9.38638306 C32.8119432 16.44692215 33.12219389 24.95944624 32.953125 33.8515625 C32.94746521 34.99160736 32.94180542 36.13165222 32.93597412 37.3062439 C32.91375659 40.91294067 32.86358613 44.5186084 32.8125 48.125 C32.79241617 50.58462097 32.77416872 53.04425767 32.7578125 55.50390625 C32.71393952 61.50299482 32.64501274 67.50132352 32.5625 73.5 C26.6225 73.5 20.6825 73.5 14.5625 73.5 C14.0675 70.035 14.0675 70.035 13.5625 66.5 C12.716875 67.263125 11.87125 68.02625 11 68.8125 C4.20669108 74.37639338 -2.7732615 75.6484692 -11.4375 75.5 C-19.86188667 74.52114667 -25.85777838 71.96073029 -31.4375 65.5 C-35.42947067 60.13578941 -35.1987561 53.92742363 -34.4375 47.5 C-32.67970517 41.818556 -28.31945081 37.6624155 -23.4375 34.5 C-16.74234384 31.84227801 -9.73148364 30.77546157 -2.625 29.875 C-0.80583413 29.63398296 1.01318202 29.3918326 2.83203125 29.1484375 C3.62198486 29.04708496 4.41193848 28.94573242 5.22583008 28.84130859 C7.69296094 28.48094406 10.12202006 28.00869235 12.5625 27.5 C12.39971765 23.26765896 12.19348132 21.1475861 9.1875 18.0625 C3.37734258 15.5581218 -2.48759107 15.39378415 -8.4375 17.625 C-11.04881073 19.8559961 -11.04881073 19.8559961 -13.4375 25.5 C-19.7075 25.5 -25.9775 25.5 -32.4375 25.5 C-30.2013126 15.4371567 -27.57732728 10.33473489 -19.4375 4.5 C-13.02138318 0.8007746 -7.33489338 -0.15399076 0 0 Z " fill="#0D2036" transform="translate(473.4375,597.5)"/>
<path d="M0 0 C8.65638437 7.11747159 13.11328448 14.51563793 15.8125 25.3125 C15.8125 28.9425 15.8125 32.5725 15.8125 36.3125 C-2.0075 36.3125 -19.8275 36.3125 -38.1875 36.3125 C-35.00825969 45.32576192 -35.00825969 45.32576192 -29.1875 51.3125 C-23.97496844 53.05001052 -17.34074508 53.52574858 -12.13671875 51.5234375 C-9.45578037 49.78049493 -7.96434202 47.97776302 -6.1875 45.3125 C-4.03271484 44.97192383 -4.03271484 44.97192383 -1.3984375 45.01953125 C-0.45742188 45.02919922 0.48359375 45.03886719 1.453125 45.04882812 C2.43796875 45.07396484 3.4228125 45.09910156 4.4375 45.125 C5.92636719 45.14530273 5.92636719 45.14530273 7.4453125 45.16601562 C9.90158072 45.20144257 12.35677285 45.25083804 14.8125 45.3125 C11.39424694 55.4429164 6.72069059 61.39757586 -2.8828125 66.3125 C-13.86366009 71.07707116 -26.58176083 70.61067379 -37.61328125 66.3828125 C-46.5412194 62.45397781 -52.39234447 55.91469367 -56.49609375 47.13671875 C-59.85278807 38.28035578 -59.86356876 25.27342313 -56.4375 16.5 C-55.73082403 15.08174059 -54.98557248 13.681416 -54.1875 12.3125 C-53.61 11.260625 -53.0325 10.20875 -52.4375 9.125 C-38.78692021 -7.93822474 -18.65714748 -9.87731337 0 0 Z " fill="#0D1F34" transform="translate(547.1875,501.6875)"/>
<path d="M0 0 C1.19170807 -0.00852997 2.38341614 -0.01705994 3.61123657 -0.02584839 C4.92040039 -0.02494202 6.22956421 -0.02403564 7.57839966 -0.02310181 C8.96973024 -0.02908554 10.3610575 -0.03589073 11.75238037 -0.04345703 C15.53342731 -0.06114062 19.31438375 -0.06581341 23.09546804 -0.0670886 C26.2515239 -0.06898707 29.40755865 -0.07634403 32.56360638 -0.08343279 C40.00995459 -0.09972349 47.45625443 -0.10460115 54.90261841 -0.10317993 C62.58426635 -0.10197846 70.26563335 -0.12307968 77.94721019 -0.15466726 C84.54178753 -0.18081875 91.13627304 -0.1915477 97.73090184 -0.19026911 C101.66978077 -0.18975912 105.6084101 -0.19546247 109.5472374 -0.21662521 C113.25243181 -0.23598875 116.95713808 -0.23614546 120.6623497 -0.22159195 C122.66883455 -0.21850358 124.67531934 -0.23519368 126.68173218 -0.25247192 C128.47775375 -0.23988846 128.47775375 -0.23988846 130.31005859 -0.22705078 C131.86803571 -0.22868508 131.86803571 -0.22868508 133.45748711 -0.2303524 C137.62116233 0.50342941 140.08593837 2.74514882 142.65701294 6.01742554 C143.64073014 9.55880746 143.36690861 12.80674566 142.28201294 16.26742554 C140.08943485 18.90976323 138.34861676 20.73412363 135.28201294 22.26742554 C133.44588958 22.37156441 131.60598416 22.41130612 129.76693726 22.42132568 C128.59487732 22.42992615 127.42281738 22.43852661 126.21524048 22.4473877 C124.92275391 22.45164764 123.63026733 22.45590759 122.2986145 22.46029663 C120.92875968 22.46819709 119.55890694 22.47646601 118.1890564 22.4850769 C113.68360382 22.51130577 109.17814192 22.52660641 104.67263794 22.54086304 C103.12189477 22.54622256 101.57115167 22.55160007 100.02040863 22.55699539 C93.5694217 22.5786263 87.11843728 22.59736272 80.66742325 22.60861778 C71.42165413 22.62485463 62.17630544 22.65802309 52.93069482 22.71501863 C46.43040213 22.75372403 39.93022186 22.77325122 33.42981696 22.77853835 C29.54725094 22.78219134 25.66513323 22.79420595 21.78269196 22.82664108 C18.12834549 22.85673248 14.47471831 22.86303034 10.82027435 22.85125732 C8.84374762 22.85093164 6.86726521 22.87539092 4.89089966 22.90063477 C-4.79876956 22.83251961 -4.79876956 22.83251961 -8.4992981 19.85595703 C-11.62429553 16.21004072 -12.00199935 14.1321784 -11.94064331 9.30258179 C-11.61942141 6.36650092 -10.53714781 4.55822056 -8.71798706 2.26742554 C-5.28659349 -0.02017018 -4.036918 0.01303644 0 0 Z " fill="#09A5BD" transform="translate(194.71798706054688,484.7325744628906)"/>
<path d="M0 0 C6.27 0 12.54 0 19 0 C19 24.42 19 48.84 19 74 C12.73 74 6.46 74 0 74 C-0.495 70.535 -0.495 70.535 -1 67 C-1.825 67.763125 -2.65 68.52625 -3.5 69.3125 C-10.28073509 74.83754341 -16.96598596 75.62088578 -25.5234375 75.41015625 C-33.19061038 74.50560215 -38.81992504 70.9745963 -43.74609375 65.13671875 C-48.16672701 57.60373933 -48.40917454 50.96111272 -48.29296875 42.40625 C-48.28872391 41.21898315 -48.28447906 40.03171631 -48.28010559 38.80847168 C-48.26339339 35.0387446 -48.22575381 31.26956388 -48.1875 27.5 C-48.17244358 24.93490359 -48.15875685 22.36979874 -48.14648438 19.8046875 C-48.1135141 13.53624974 -48.06178237 7.26821732 -48 1 C-41.73 1 -35.46 1 -29 1 C-28.98541748 2.42787842 -28.97083496 3.85575684 -28.95581055 5.3269043 C-28.89779774 10.62924119 -28.82056434 15.93115475 -28.73754883 21.2331543 C-28.70431366 23.52702967 -28.67627736 25.82098654 -28.65356445 28.11499023 C-28.61999326 31.41425273 -28.56767465 34.7127693 -28.51171875 38.01171875 C-28.50532883 39.03585373 -28.4989389 40.05998871 -28.49235535 41.11515808 C-28.38579353 48.05898628 -28.38579353 48.05898628 -25 54 C-21.04611219 57.18507629 -17.99932792 57.51717185 -13 57 C-7.84551313 55.3400805 -4.91631728 53.59880801 -2 49 C-1.09080498 46.10654335 -0.8541324 43.43873361 -0.79467773 40.41503906 C-0.77473251 39.51440735 -0.75478729 38.61377563 -0.73423767 37.68585205 C-0.71752518 36.72217712 -0.70081268 35.7585022 -0.68359375 34.765625 C-0.66281265 33.77246277 -0.64203156 32.77930054 -0.62062073 31.75604248 C-0.55530251 28.58743118 -0.49632261 25.41873789 -0.4375 22.25 C-0.39429793 20.10025198 -0.35068309 17.95051222 -0.30664062 15.80078125 C-0.19963923 10.53393792 -0.09832178 5.26701222 0 0 Z " fill="#0C1E34" transform="translate(621,394)"/>
<path d="M0 0 C8.07772007 5.72811709 12.62036627 12.25061548 15.6796875 21.64453125 C15.6796875 21.97453125 15.6796875 22.30453125 15.6796875 22.64453125 C12.26366735 22.81900059 8.84879113 22.92542748 5.4296875 23.01953125 C3.97755859 23.09494141 3.97755859 23.09494141 2.49609375 23.171875 C-0.23148842 23.22830773 -2.65054845 23.21417975 -5.3203125 22.64453125 C-7.7890625 19.73828125 -7.7890625 19.73828125 -9.3203125 16.64453125 C-14.11105351 13.88064221 -18.83115721 12.55715572 -24.3203125 13.64453125 C-28.8481232 15.42596497 -32.29525288 17.94795329 -34.8203125 22.14453125 C-37.78722303 29.15120836 -37.46003034 37.58564291 -34.8203125 44.64453125 C-32.39962534 49.24045127 -29.21662775 51.91740635 -24.3203125 53.64453125 C-18.88744658 54.43263217 -13.24330897 54.2291044 -8.3203125 51.64453125 C-6.93172378 49.21567337 -6.93172378 49.21567337 -6.3203125 46.64453125 C-5.8253125 45.65453125 -5.8253125 45.65453125 -5.3203125 44.64453125 C1.6096875 44.64453125 8.5396875 44.64453125 15.6796875 44.64453125 C13.69267554 54.57959107 8.82729014 61.40665509 0.44140625 67.1875 C-8.88582088 72.68073739 -18.81584277 74.27916822 -29.4765625 71.95703125 C-36.0548373 69.96361464 -41.28147963 67.32344749 -46.3203125 62.64453125 C-47.24457031 61.79955078 -47.24457031 61.79955078 -48.1875 60.9375 C-55.57088062 53.4115219 -58.77317526 43.9264455 -58.8828125 33.51953125 C-58.66085618 21.77120161 -54.48585441 13.1289805 -46.5078125 4.73828125 C-33.84698466 -7.30992589 -14.96579601 -8.74264514 0 0 Z " fill="#0D1F35" transform="translate(494.3203125,397.35546875)"/>
<path d="M0 0 C7.55252319 -1.05200279 15.56918642 -2.11652875 23 0 C27.94812078 3.74270706 30.59812427 9.39371796 33.01464844 14.98535156 C34.10743527 17.21966201 35.4579407 19.05471671 37 21 C37.32274902 20.47043701 37.64549805 19.94087402 37.97802734 19.39526367 C39.44304591 16.99228554 40.90901245 14.5898871 42.375 12.1875 C42.88289062 11.35412109 43.39078125 10.52074219 43.9140625 9.66210938 C44.40390625 8.85966797 44.89375 8.05722656 45.3984375 7.23046875 C45.84880371 6.49207764 46.29916992 5.75368652 46.76318359 4.99291992 C47.80907225 3.3076477 48.89978666 1.65032001 50 0 C52.33837891 -0.34057617 52.33837891 -0.34057617 55.2265625 -0.29296875 C56.7734375 -0.2784668 56.7734375 -0.2784668 58.3515625 -0.26367188 C59.43179688 -0.23853516 60.51203125 -0.21339844 61.625 -0.1875 C62.71296875 -0.17396484 63.8009375 -0.16042969 64.921875 -0.14648438 C67.61507409 -0.11104754 70.30729374 -0.06164331 73 0 C68.6566214 7.06469043 64.0218523 13.767624 59.07373047 20.41650391 C55.10314269 25.78279674 51.47408202 31.29681416 48 37 C48.67482422 37.91265625 48.67482422 37.91265625 49.36328125 38.84375 C53.54478753 44.54199503 57.6226481 50.29989687 61.625 56.125 C62.06755127 56.76888672 62.51010254 57.41277344 62.96606445 58.07617188 C66.35368198 63.022256 69.68360167 68.00594515 73 73 C65.44879217 74.25805077 57.39509063 75.43435391 50 73 C44.35726215 68.29141988 41.11386991 61.5169012 38.05541992 54.94946289 C37.15303471 52.83750172 37.15303471 52.83750172 35 52 C34.77441406 52.66515625 34.54882812 53.3303125 34.31640625 54.015625 C32.60189055 57.90253892 30.32354136 61.2468728 27.9375 64.75 C27.47794922 65.43449219 27.01839844 66.11898437 26.54492188 66.82421875 C23.16919168 71.83080832 23.16919168 71.83080832 22 73 C20.36527118 73.08700342 18.72685945 73.10701063 17.08984375 73.09765625 C16.10048828 73.09443359 15.11113281 73.09121094 14.09179688 73.08789062 C13.05087891 73.07951172 12.00996094 73.07113281 10.9375 73.0625 C9.89271484 73.05798828 8.84792969 73.05347656 7.77148438 73.04882812 C5.1809334 73.03699913 2.59049441 73.02051689 0 73 C4.81763941 65.68899181 9.82019531 58.52000383 14.87695312 51.37304688 C18.4198802 46.33999494 21.78857599 41.25119427 25 36 C24.52038818 35.34588135 24.04077637 34.6917627 23.54663086 34.01782227 C18.45903647 27.05413516 13.48185418 20.02081985 8.5625 12.9375 C7.84384766 11.90689453 7.12519531 10.87628906 6.38476562 9.81445312 C5.70220703 8.83283203 5.01964844 7.85121094 4.31640625 6.83984375 C3.70224854 5.95675537 3.08809082 5.07366699 2.45532227 4.16381836 C1 2 1 2 0 0 Z " fill="#0D1F35" transform="translate(648,394)"/>
<path d="M0 0 C6.6 0 13.2 0 20 0 C20 6.93 20 13.86 20 21 C25.61 21 31.22 21 37 21 C37 26.28 37 31.56 37 37 C31.39 37 25.78 37 20 37 C20.02813264 41.46797398 20.07127205 45.93061954 20.15258789 50.3972168 C20.17572451 51.91501168 20.19015348 53.43296613 20.19555664 54.95092773 C20.20487922 57.1388643 20.24593151 59.32430687 20.29296875 61.51171875 C20.3086792 62.82615967 20.32438965 64.14060059 20.34057617 65.49487305 C21.15509011 69.82437199 22.5803436 71.30733722 26 74 C28.87099682 74.80456863 28.87099682 74.80456863 31.8125 74.8125 C33.524375 74.874375 35.23625 74.93625 37 75 C37 80.61 37 86.22 37 92 C33.49915355 92.10864696 30.00172828 92.18762825 26.5 92.25 C25.51773438 92.28351563 24.53546875 92.31703125 23.5234375 92.3515625 C16.46059679 92.44573371 10.79702518 91.52702805 5.47900391 86.5871582 C0.17782045 80.61783063 -0.28784516 75.37354584 -0.1953125 67.76171875 C-0.1924826 66.88095169 -0.18965271 66.00018463 -0.18673706 65.09272766 C-0.17557833 62.29084455 -0.15048171 59.48928584 -0.125 56.6875 C-0.11496463 54.78320775 -0.10583975 52.87891048 -0.09765625 50.97460938 C-0.07565309 46.31628203 -0.04115294 41.65819594 0 37 C-4.29 37 -8.58 37 -13 37 C-13 31.72 -13 26.44 -13 21 C-8.71 21 -4.42 21 0 21 C0 14.07 0 7.14 0 0 Z " fill="#0C1E35" transform="translate(805,477)"/>
<path d="M0 0 C0.8382431 -0.00708481 1.67648621 -0.01416962 2.54013062 -0.02146912 C3.45139709 -0.0189917 4.36266357 -0.01651428 5.30154419 -0.01396179 C6.2678476 -0.01907272 7.234151 -0.02418365 8.22973633 -0.02944946 C11.42577296 -0.04335547 14.62159417 -0.04238779 17.81765747 -0.04008484 C20.03959229 -0.04397146 22.26152636 -0.04830606 24.48345947 -0.05307007 C29.14224658 -0.06053464 33.8009579 -0.06023944 38.45974731 -0.05497742 C44.42738137 -0.04918518 50.39470482 -0.06610691 56.36228752 -0.08932209 C60.95196341 -0.1040611 65.54156455 -0.10493084 70.13125992 -0.10181236 C72.33126566 -0.10232558 74.53127559 -0.10756331 76.73125839 -0.11762428 C79.80957909 -0.12997315 82.88729552 -0.12320578 85.96560669 -0.11161804 C87.32643372 -0.12308365 87.32643372 -0.12308365 88.7147522 -0.13478088 C94.69157317 -0.08510184 99.03789755 0.80813123 103.63796997 4.94819641 C105.30982166 8.38478044 105.54149803 11.57330442 104.76296997 15.26069641 C103.00997703 18.27973982 100.93274596 20.67580842 97.76296997 22.26069641 C96.39566651 22.36262671 95.0236171 22.40440888 93.65255737 22.41459656 C92.36145302 22.42749725 92.36145302 22.42749725 91.04426575 22.44065857 C90.0977565 22.44491852 89.15124725 22.44917847 88.17605591 22.4535675 C86.68314781 22.46583374 86.68314781 22.46583374 85.16007996 22.47834778 C81.85584114 22.50322524 78.55164535 22.51972409 75.24734497 22.53413391 C73.55679867 22.54211943 73.55679867 22.54211943 71.83209991 22.55026627 C65.86651794 22.57700841 59.90095697 22.5963797 53.93533325 22.61079407 C47.77022029 22.62744199 41.60564188 22.67221856 35.44073105 22.72316551 C30.70351541 22.75680642 25.96642711 22.76836812 21.22910309 22.77402115 C18.9564938 22.78074259 16.68389314 22.79598767 14.41139984 22.81991196 C11.22964317 22.85149666 8.04933416 22.85160979 4.86746216 22.8441925 C3.92904984 22.86059784 2.99063751 22.87700317 2.02378845 22.89390564 C-2.36688949 22.85202132 -5.31533933 22.66568791 -8.80606079 19.84922791 C-12.16138827 16.27642628 -12.58482887 14.22671934 -12.52218628 9.29585266 C-12.07024307 6.07034019 -10.55691029 4.45169444 -8.23703003 2.26069641 C-5.38731728 0.56449195 -3.30221995 0.00933809 0 0 Z " fill="#0C2036" transform="translate(195.23703002929688,533.7393035888672)"/>
<path d="M0 0 C0 6.6 0 13.2 0 20 C-1.98 19.896875 -3.96 19.79375 -6 19.6875 C-11.3651552 19.70503319 -14.89008852 20.28023034 -19.4140625 23.125 C-24.17713765 28.75622185 -24.45928312 35.72949292 -24.51171875 42.75 C-24.52966995 43.64871826 -24.54762115 44.54743652 -24.56611633 45.47338867 C-24.61986305 48.31554614 -24.65399974 51.15753917 -24.6875 54 C-24.7207046 55.93882479 -24.75519713 57.87762798 -24.79101562 59.81640625 C-24.87796986 64.54428982 -24.93834175 69.27144976 -25 74 C-31.6 74 -38.2 74 -45 74 C-45 49.58 -45 25.16 -45 0 C-38.4 0 -31.8 0 -25 0 C-24.67 2.31 -24.34 4.62 -24 7 C-23.57589844 6.59007812 -23.15179687 6.18015625 -22.71484375 5.7578125 C-16.85400374 0.37356827 -7.88816752 -3.94408376 0 0 Z " fill="#0C1E34" transform="translate(564,394)"/>
<path d="M0 0 C0 6.27 0 12.54 0 19 C-3.031875 19.12375 -3.031875 19.12375 -6.125 19.25 C-13.0045518 19.78092193 -16.16372 20.87031173 -20.8125 26 C-22.76465762 29.28784441 -23.12372446 32.44096052 -23.20532227 36.21777344 C-23.22526749 37.03832214 -23.24521271 37.85887085 -23.26576233 38.70428467 C-23.28247482 39.58046448 -23.29918732 40.45664429 -23.31640625 41.359375 C-23.33718735 42.26375305 -23.35796844 43.1681311 -23.37937927 44.09991455 C-23.4446594 46.98320055 -23.50365952 49.8665761 -23.5625 52.75 C-23.60570571 54.70704044 -23.64932065 56.66407188 -23.69335938 58.62109375 C-23.80108735 63.41397213 -23.90032091 68.20692042 -24 73 C-30.6 73 -37.2 73 -44 73 C-44 48.91 -44 24.82 -44 0 C-37.4 0 -30.8 0 -24 0 C-23.67 2.31 -23.34 4.62 -23 7 C-22.319375 6.236875 -21.63875 5.47375 -20.9375 4.6875 C-15.49466655 -0.29211358 -7.11523773 -3.55761886 0 0 Z " fill="#0D2038" transform="translate(787,497)"/>
<path d="M0 0 C0 6.6 0 13.2 0 20 C-1.85625 19.938125 -3.7125 19.87625 -5.625 19.8125 C-10.53976578 19.82406415 -13.90922121 20.03418538 -18 23 C-22.00553499 27.22205039 -23.08232528 30.52477001 -23.20532227 36.21777344 C-23.22526749 37.03832214 -23.24521271 37.85887085 -23.26576233 38.70428467 C-23.28247482 39.58046448 -23.29918732 40.45664429 -23.31640625 41.359375 C-23.33718735 42.26375305 -23.35796844 43.1681311 -23.37937927 44.09991455 C-23.4446594 46.98320055 -23.50365952 49.8665761 -23.5625 52.75 C-23.60570571 54.70704044 -23.64932065 56.66407188 -23.69335938 58.62109375 C-23.80108735 63.41397213 -23.90032091 68.20692042 -24 73 C-30.6 73 -37.2 73 -44 73 C-44 48.91 -44 24.82 -44 0 C-37.73 0 -31.46 0 -25 0 C-24.67 2.64 -24.34 5.28 -24 8 C-23.54625 7.2575 -23.0925 6.515 -22.625 5.75 C-17.33995438 0.21328554 -7.36891969 -3.68445985 0 0 Z " fill="#0C1E34" transform="translate(485,497)"/>
<path d="M0 0 C0.68315781 -0.00817749 1.36631561 -0.01635498 2.07017517 -0.02478027 C4.33551152 -0.0496317 6.60078512 -0.06615118 8.86621094 -0.08056641 C9.64019981 -0.08589008 10.41418869 -0.09121376 11.21163177 -0.09669876 C15.30986033 -0.12343168 19.40805843 -0.14280443 23.50634766 -0.15722656 C27.73448103 -0.17385798 31.96183244 -0.21862163 36.18967056 -0.26959801 C39.44454821 -0.30329924 42.69924109 -0.31480715 45.95427704 -0.32045364 C47.51238722 -0.32716028 49.07048548 -0.34236729 50.6284256 -0.36634445 C52.81412375 -0.39805847 54.99772479 -0.39802483 57.18359375 -0.390625 C58.42554504 -0.39871185 59.66749634 -0.40679871 60.94708252 -0.41513062 C65.47682324 0.39406208 67.10563319 1.98022622 70.35058594 5.19287109 C71.88273482 8.25716885 71.57997142 10.80943529 71.35058594 14.19287109 C69.69919288 17.7315705 68.63453364 19.00357262 65.35058594 21.19287109 C62.25210571 21.46029663 62.25210571 21.46029663 58.38818359 21.48339844 C57.68376633 21.49011566 56.97934906 21.49683289 56.25358582 21.50375366 C53.92386834 21.52275819 51.59443861 21.52665913 49.26464844 21.52880859 C47.64423504 21.53523514 46.02382281 21.54196339 44.40341187 21.54898071 C41.00556753 21.56095982 37.6078249 21.56466092 34.20996094 21.56347656 C29.85965804 21.56327341 25.51000867 21.59056878 21.15986061 21.62502098 C17.81235774 21.64727892 14.46501238 21.65131444 11.11744308 21.65025711 C9.51388676 21.652615 7.91032621 21.6614492 6.3068428 21.67692184 C4.06135822 21.6965593 1.81728556 21.69075394 -0.42822266 21.67871094 C-2.34325089 21.68298599 -2.34325089 21.68298599 -4.29696655 21.68734741 C-8.22328244 21.10822717 -9.86062941 19.95980632 -12.64941406 17.19287109 C-14.2637133 13.96427263 -14.24512063 10.68293456 -13.64941406 7.19287109 C-10.14246336 1.08187864 -6.72444905 0.06981059 0 0 Z " fill="#0C1E35" transform="translate(196.6494140625,434.80712890625)"/>
<path d="M0 0 C4.62718991 2.06366957 7.29205541 4.85815389 9.9375 9.125 C12.93636727 17.23958201 12.71463663 23.77552914 9.27734375 31.7265625 C6.85068023 36.04557831 3.72967733 38.42344089 -1 40 C-6.48769613 40.48304396 -11.36794325 40.74184398 -16.4375 38.4375 C-22.37864892 32.78616322 -25.08864953 27.99712246 -25.3125 19.75 C-25.23817355 13.556129 -23.85126589 8.91672862 -19.46875 4.43359375 C-13.38928947 -0.79653038 -7.82465275 -0.9597997 0 0 Z " fill="#F9F9FA" transform="translate(702,513)"/>
<path d="M0 0 C4.34464753 3.03114944 7.73036275 6.89082381 9.6875 11.875 C9.98828125 15.1171875 9.98828125 15.1171875 10 18.75 C10.01675781 19.94367187 10.03351562 21.13734375 10.05078125 22.3671875 C9.56587259 27.04942384 8.16804932 30.30212243 4.93359375 33.73828125 C4.33675781 34.21652344 3.73992188 34.69476562 3.125 35.1875 C2.22587891 35.92419922 2.22587891 35.92419922 1.30859375 36.67578125 C-3.29535799 40.08159615 -8.82338331 39.36057571 -14.3125 38.875 C-19.8198087 37.31987866 -22.61003553 33.53388738 -25.3671875 28.77734375 C-28.20029329 23.07601103 -28.14867477 16.7881901 -26.3125 10.75 C-24.30949667 5.94471797 -20.51717072 2.79961975 -16.3125 -0.125 C-10.91330143 -1.92473286 -5.37692735 -1.82612627 0 0 Z " fill="#F9F9F9" transform="translate(619.3125,514.125)"/>
<path d="M0 0 C4.8255052 3.36663153 7.848455 7.31717816 9.6875 12.875 C10.55879378 20.22020923 10.25462613 26.84136549 5.6875 32.875 C1.59633925 37.14775275 -2.15118481 39.01309784 -8.0625 39.1875 C-13.35219899 39.12581255 -16.06835513 38.01566721 -20.3125 34.875 C-26.01202356 28.86739409 -26.82290695 23.16605301 -26.6953125 15.109375 C-25.97412881 9.01610871 -23.06960779 5.50660009 -18.6875 1.4375 C-13.07921848 -2.25215889 -6.21336991 -2.1102011 0 0 Z " fill="#F9FAFA" transform="translate(650.3125,616.125)"/>
<path d="M0 0 C5.124505 2.26138194 8.16136131 5.44361859 10.8125 10.34765625 C12.85878787 16.48651985 12.91821965 23.8478239 10.1875 29.78515625 C7.68618644 34.07312235 4.27002558 37.11889346 -0.1875 39.34765625 C-6.3992137 39.87544892 -11.945849 40.09169268 -17.1875 36.34765625 C-22.25945461 31.16042995 -24.21925067 26.69910191 -24.5625 19.53515625 C-24.41315644 12.93417111 -22.43866892 7.54254595 -17.6875 2.91015625 C-11.7927085 -0.77408844 -6.85519192 -2.04431616 0 0 Z " fill="#F9F9FA" transform="translate(562.1875,615.65234375)"/>
<path d="M0 0 C15.51 0 31.02 0 47 0 C47 5.94 47 11.88 47 18 C31.49 18 15.98 18 0 18 C0 12.06 0 6.12 0 0 Z " fill="#0A1A31" transform="translate(725,420)"/>
<path d="M0 0 C14.85 0 29.7 0 45 0 C45 5.94 45 11.88 45 18 C30.15 18 15.3 18 0 18 C0 12.06 0 6.12 0 0 Z " fill="#0E233C" transform="translate(848,520)"/>
<path d="M0 0 C66.66 0.33 133.32 0.66 202 1 C202.33 1.66 202.66 2.32 203 3 C199.8950755 4.55246225 196.61198273 4.13316965 193.2046814 4.12025452 C192.39034563 4.12110894 191.57600986 4.12196337 190.73699725 4.12284368 C187.99309987 4.1244981 185.24926289 4.11897772 182.50537109 4.11352539 C180.5445099 4.11324348 178.58364861 4.11340132 176.62278748 4.1139679 C171.28629006 4.11425574 165.94981495 4.10836114 160.61332273 4.10139394 C155.04125804 4.0951582 149.46919289 4.09455643 143.89712524 4.09336853 C133.33968704 4.09025587 122.78225915 4.08204334 112.2248255 4.07201904 C100.20808048 4.0608559 88.19133497 4.05534694 76.17458606 4.05032361 C51.44971831 4.03986068 26.72485973 4.02226249 2 4 C1.34 2.68 0.68 1.36 0 0 Z " fill="#1C2A3B" transform="translate(158,660)"/>
<path d="M0 0 C4.44016929 3.80585939 8.60442137 7.47661069 12.71484375 11.58203125 C13.21544815 12.08167892 13.71605255 12.5813266 14.23182678 13.09611511 C15.27402363 14.13763881 16.31498848 15.18039671 17.35473633 16.22436523 C18.95474662 17.82980515 20.5601231 19.42974308 22.16601562 21.02929688 C23.18261306 22.04655391 24.1989009 23.06412047 25.21484375 24.08203125 C26.13386475 25.00218018 27.05288574 25.9223291 27.99975586 26.87036133 C30 29 30 29 30 30 C20.1 30 10.2 30 0 30 C0 20.1 0 10.2 0 0 Z " fill="#1793FC" transform="translate(318,378)"/>
<path d="M0 0 C6.6 0 13.2 0 20 0 C20 2.31 20 4.62 20 7 C19.67 7 19.34 7 19 7 C19 5.02 19 3.04 19 1 C13.72 1 8.44 1 3 1 C3 31.36 3 61.72 3 93 C7.95 93 12.9 93 18 93 C18 83.43 18 73.86 18 64 C18.66 64 19.32 64 20 64 C20.33 74.56 20.66 85.12 21 96 C14.07 96 7.14 96 0 96 C0 64.32 0 32.64 0 0 Z " fill="#24303E" transform="translate(604,600)"/>
<path d="M0 0 C0.28944223 5.59588314 0.20887163 9.18669255 -3 14 C-7.43094124 18.37186203 -10.59901068 20.1669312 -16.8125 20.3125 C-20.70134987 20.27053399 -22.68312491 20.16154416 -26.1875 18.375 C-28.46251315 15.39394829 -29.15371119 13.76592407 -29 10 C-25.07525173 4.76700231 -20.72719069 3.4600443 -14.45703125 2.40234375 C-13.25433594 2.24894531 -12.05164063 2.09554687 -10.8125 1.9375 C-7.39984176 1.49774319 -3.32578625 0 0 0 Z " fill="#F7F7F8" transform="translate(487,638)"/>
<path d="M0 0 C2.94450934 2.53364757 4.80956091 4.91776395 6.6875 8.3125 C6.6875 9.3025 6.6875 10.2925 6.6875 11.3125 C-3.8725 11.3125 -14.4325 11.3125 -25.3125 11.3125 C-24.17279449 5.61397245 -22.50780042 3.14341986 -18.3125 -0.6875 C-12.2991216 -3.89463515 -5.90301618 -3.00719692 0 0 Z " fill="#F9F9F9" transform="translate(535.3125,513.6875)"/>
<path d="M0 0 C0.96659546 -0.00540298 1.93319092 -0.01080597 2.92907715 -0.01637268 C6.11449082 -0.02884877 9.29899872 -0.01237587 12.484375 0.00561523 C14.703451 0.00546022 16.92252728 0.00397086 19.14160156 0.00120544 C23.78853346 -0.00017805 28.43515653 0.01237165 33.08203125 0.03515625 C39.0339515 0.06354039 44.98535869 0.06080273 50.93731689 0.04806614 C55.51843638 0.04110609 60.09943761 0.04890204 64.68054199 0.06132317 C66.87495469 0.06583447 69.06938011 0.06617727 71.26379395 0.06225777 C74.33237668 0.05934243 77.4002562 0.0758686 80.46875 0.09765625 C81.37282593 0.0931546 82.27690186 0.08865295 83.20837402 0.08401489 C89.17166065 0.1542464 93.58388819 1.0279213 98.109375 5.25170898 C99.67678953 8.38653804 99.43337643 11.05235088 99.234375 14.50170898 C98.904375 14.50170898 98.574375 14.50170898 98.234375 14.50170898 C98.06421875 13.87522461 97.8940625 13.24874023 97.71875 12.60327148 C97.47640625 11.78600586 97.2340625 10.96874023 96.984375 10.12670898 C96.75234375 9.31459961 96.5203125 8.50249023 96.28125 7.66577148 C94.96785457 4.9507675 93.99409997 4.60588531 91.234375 3.50170898 C89.14223546 3.1971597 89.14223546 3.1971597 86.92141724 3.22755432 C85.63881012 3.21259163 85.63881012 3.21259163 84.33029175 3.19732666 C83.40032379 3.19666199 82.47035583 3.19599731 81.51220703 3.1953125 C80.52639648 3.18698898 79.54058594 3.17866547 78.52490234 3.17008972 C75.2639573 3.14598151 72.00321223 3.13721678 68.7421875 3.13061523 C66.47541239 3.12164996 64.20863789 3.11252814 61.94186401 3.10325623 C57.18892986 3.08676173 52.4360662 3.07906519 47.68310547 3.07617188 C41.59424044 3.07078584 35.50603812 3.03309788 29.41736031 2.98742771 C24.73503197 2.95767974 20.0528637 2.95044881 15.37044907 2.94944572 C13.12576129 2.94523943 10.88107321 2.93278884 8.63647842 2.91192818 C5.49560088 2.88506012 2.35626598 2.88982618 -0.78466797 2.90234375 C-1.71058746 2.88750946 -2.63650696 2.87267517 -3.59048462 2.85739136 C-8.0468793 2.90794333 -10.88211721 3.14069805 -14.38943481 6.03916931 C-15.17357758 6.8518074 -15.95772034 7.6644455 -16.765625 8.50170898 C-16.640625 6.75170898 -16.640625 6.75170898 -15.765625 4.50170898 C-10.68079681 0.11390526 -6.55641902 -0.07011276 0 0 Z " fill="#1E2C3E" transform="translate(200.765625,533.498291015625)"/>
<path d="M0 0 C6.6 0 13.2 0 20 0 C20 2.64 20 5.28 20 8 C19.67 8 19.34 8 19 8 C18.67 6.35 18.34 4.7 18 3 C13.05 3 8.1 3 3 3 C3 25.77 3 48.54 3 72 C7.95 72 12.9 72 18 72 C18 59.13 18 46.26 18 33 C18.33 33 18.66 33 19 33 C19 46.2 19 59.4 19 73 C12.73 73 6.46 73 0 73 C0 48.91 0 24.82 0 0 Z " fill="#17293E" transform="translate(519,394)"/>
<path d="M0 0 C0.33 0 0.66 0 1 0 C1 23.43 1 46.86 1 71 C6.61 71 12.22 71 18 71 C17.98839844 68.53144531 17.97679687 66.06289063 17.96484375 63.51953125 C17.95703768 61.12003711 17.95096974 58.72054441 17.94506836 56.32104492 C17.94004977 54.65762699 17.93323348 52.99421344 17.92456055 51.33081055 C17.91238643 48.93537307 17.90674686 46.53999409 17.90234375 44.14453125 C17.89718246 43.4047554 17.89202118 42.66497955 17.88670349 41.90278625 C17.88629759 38.13916846 18.09241691 34.65859619 19 31 C19.33 31 19.66 31 20 31 C20 44.86 20 58.72 20 73 C13.4 73 6.8 73 0 73 C0 48.91 0 24.82 0 0 Z " fill="#00040E" transform="translate(743,497)"/>
<path d="M0 0 C14.85 0 29.7 0 45 0 C45 5.94 45 11.88 45 18 C30.15 18 15.3 18 0 18 C0 12.06 0 6.12 0 0 Z M2 2 C2 6.95 2 11.9 2 17 C15.86 17 29.72 17 44 17 C44 12.05 44 7.1 44 2 C30.14 2 16.28 2 2 2 Z " fill="#0F141D" transform="translate(848,520)"/>
<path d="M0 0 C0.33 0 0.66 0 1 0 C1 15.84 1 31.68 1 48 C-4.94 48 -10.88 48 -17 48 C-17 45.69 -17 43.38 -17 41 C-16.67 41 -16.34 41 -16 41 C-16 42.65 -16 44.3 -16 46 C-11.05 46 -6.1 46 -1 46 C-1.00523682 44.71311279 -1.01047363 43.42622559 -1.01586914 42.1003418 C-1.0339528 37.33130589 -1.04544437 32.56227302 -1.05493164 27.79321289 C-1.05996414 25.72810354 -1.06679069 23.66299776 -1.07543945 21.59790039 C-1.08755236 18.63166422 -1.09323911 15.66547511 -1.09765625 12.69921875 C-1.10539818 11.31158577 -1.10539818 11.31158577 -1.11329651 9.8959198 C-1.11337204 9.03525406 -1.11344757 8.17458832 -1.11352539 7.2878418 C-1.115746 6.53061325 -1.11796661 5.7733847 -1.12025452 4.99320984 C-1 3 -1 3 0 0 Z " fill="#030B19" transform="translate(505,623)"/>
<path d="M0 0 C0 5.61 0 11.22 0 17 C-7.26 17 -14.52 17 -22 17 C-22.33 16.34 -22.66 15.68 -23 15 C-16.07 15 -9.14 15 -2 15 C-2 10.71 -2 6.42 -2 2 C-3.32 1.67 -4.64 1.34 -6 1 C-3.92446352 0.4465236 -2.15634036 0 0 0 Z " fill="#050C1A" transform="translate(842,552)"/>
<path d="M0 0 C6.93 0 13.86 0 21 0 C17.2632157 2.49118953 15.25548181 2.2065226 10.8125 2.125 C9.54019531 2.10695313 8.26789062 2.08890625 6.95703125 2.0703125 C5.49330078 2.03550781 5.49330078 2.03550781 4 2 C5.98 4.97 7.96 7.94 10 11 C9.67 11.66 9.34 12.32 9 13 C7.49710267 11.02297434 5.99758658 9.0435417 4.5 7.0625 C4.07074219 6.49853516 3.64148438 5.93457031 3.19921875 5.35351562 C0 1.11328125 0 1.11328125 0 0 Z " fill="#070E1C" transform="translate(648,394)"/>
<path d="M0 0 C2.97 0 5.94 0 9 0 C10.65497356 3.30994713 10.10084335 6.99123 10.0625 10.625 C10.05798828 11.42679687 10.05347656 12.22859375 10.04882812 13.0546875 C10.03703168 15.03649006 10.01909605 17.01825433 10 19 C7.03 18.67 4.06 18.34 1 18 C1 17.67 1 17.34 1 17 C3.64 17 6.28 17 9 17 C9 12.38 9 7.76 9 3 C6.03 3 3.06 3 0 3 C0 2.01 0 1.02 0 0 Z " fill="#1B2D42" transform="translate(776,496)"/>
<path d="M0 0 C6.27 0 12.54 0 19 0 C18.67 2.97 18.34 5.94 18 9 C17.67 9 17.34 9 17 9 C17 6.69 17 4.38 17 2 C11.39 2 5.78 2 0 2 C0 1.34 0 0.68 0 0 Z " fill="#070F22" transform="translate(744,497)"/>
<path d="M0 0 C0.66 0.99 1.32 1.98 2 3 C1.071875 3.433125 0.14375 3.86625 -0.8125 4.3125 C-3.47184073 5.72038627 -5.08105905 6.76123556 -7 9 C-7.66 8.67 -8.32 8.34 -9 8 C-7.87811441 6.85111717 -6.75238316 5.70598863 -5.625 4.5625 C-4.99851562 3.92441406 -4.37203125 3.28632813 -3.7265625 2.62890625 C-2 1 -2 1 0 0 Z " fill="#0A1220" transform="translate(453,398)"/>
</svg>
