<?xml version="1.0" standalone="no"?>
<!DOCTYPE svg PUBLIC "-//W3C//DTD SVG 20010904//EN"
 "http://www.w3.org/TR/2001/REC-SVG-20010904/DTD/svg10.dtd">
<svg version="1.0" xmlns="http://www.w3.org/2000/svg"
 width="1024.000000pt" height="1024.000000pt" viewBox="0 0 1024.000000 1024.000000"
 preserveAspectRatio="xMidYMid meet">

<g transform="translate(0.000000,1024.000000) scale(0.100000,-0.100000)"
fill="#000000" stroke="none">
<path d="M2715 7309 c-107 -26 -280 -113 -389 -195 -49 -37 -179 -155 -290
-263 -167 -163 -213 -202 -271 -231 -66 -33 -75 -35 -170 -34 -111 0 -165 16
-269 79 -32 19 -61 35 -63 35 -3 0 -3 -62 -1 -137 5 -119 10 -151 37 -234 78
-240 260 -407 516 -475 50 -13 106 -19 195 -19 l126 0 -23 -62 c-41 -113 -56
-225 -49 -363 18 -360 18 -454 2 -530 -35 -165 -108 -256 -267 -334 l-88 -43
137 -65 c157 -75 191 -88 321 -122 51 -14 95 -27 97 -28 2 -2 -17 -20 -41 -40
-253 -204 -286 -552 -75 -772 173 -180 440 -215 695 -91 148 71 273 190 325
307 22 51 44 188 35 218 -9 28 7 25 67 -14 259 -165 766 -322 992 -307 19 1
19 20 12 839 l-7 837 27 150 c24 131 27 177 28 362 1 116 -2 214 -6 218 -4 4
-22 -2 -40 -13 -18 -11 -71 -33 -118 -50 l-85 -30 -39 67 c-95 161 -190 264
-326 353 -41 27 -76 51 -78 53 -2 2 5 18 14 37 26 47 26 264 0 363 -70 273
-263 464 -540 535 -106 27 -278 26 -391 -1z m542 -995 c261 -60 456 -194 593
-405 l41 -64 -42 -12 c-23 -7 -50 -15 -59 -18 -13 -4 -26 8 -50 47 -43 70
-141 171 -214 220 -154 105 -345 154 -533 137 -179 -16 -322 -88 -459 -230
-113 -118 -195 -254 -255 -424 -28 -77 -29 -78 -23 -30 18 149 113 372 212
497 197 248 489 352 789 282z m834 -719 c9 -40 11 -205 3 -243 -4 -21 -14 -32
-30 -36 -13 -4 -245 -38 -516 -76 -271 -39 -498 -72 -504 -74 -8 -3 -12 -58
-13 -168 -2 -226 -19 -894 -27 -1063 -7 -164 -18 -190 -109 -274 -156 -141
-348 -185 -505 -115 -66 29 -132 93 -158 152 -26 61 -22 176 9 242 61 130 174
218 318 249 103 22 120 18 290 -76 80 -44 100 -61 113 -93 15 -39 20 -100 8
-100 -5 0 -10 6 -10 13 0 8 -4 7 -10 -3 -13 -20 -13 -40 1 -40 5 0 7 5 3 11
-4 7 -1 10 7 7 18 -6 25 -39 7 -35 -7 2 -10 2 -5 0 4 -3 4 -10 1 -15 -4 -7 -2
-8 4 -4 18 11 15 -40 -3 -57 -8 -8 -11 -17 -8 -21 3 -3 1 -12 -6 -20 -12 -14
-35 -16 -47 -3 -4 4 -12 7 -18 7 -5 0 -2 -6 8 -13 16 -12 16 -13 -1 -29 -15
-14 -21 -14 -36 -4 -18 14 -13 51 6 39 6 -3 7 -1 3 5 -4 7 -1 12 7 12 8 0 17
9 20 20 3 13 0 20 -9 20 -7 0 -11 -6 -9 -13 6 -14 -32 -41 -40 -28 -8 15 6 42
19 34 6 -4 5 1 -3 10 -13 16 -11 17 23 11 35 -5 37 -4 34 18 -2 12 -13 28 -25
34 -25 12 -21 26 5 17 15 -4 15 -3 2 6 -12 9 -13 11 -1 11 8 0 11 3 8 6 -11
11 14 46 28 41 9 -4 11 1 8 14 -8 27 -23 34 -23 10 0 -12 -4 -21 -10 -21 -5 0
-10 -8 -11 -17 0 -15 -2 -15 -9 2 -7 16 -9 17 -9 3 -1 -9 -4 -18 -8 -21 -5 -2
-2 -2 5 0 8 1 12 -2 10 -9 -2 -6 -14 -13 -25 -14 -17 -3 -21 1 -18 15 2 11 -3
22 -11 25 -17 7 -18 -6 -2 -22 7 -7 8 -12 2 -12 -5 0 -15 5 -22 12 -9 9 -12 8
-12 -4 0 -9 -7 -24 -16 -32 -8 -9 -12 -16 -8 -16 3 0 1 -7 -6 -15 -7 -8 -16
-12 -21 -9 -5 3 -9 0 -9 -7 0 -7 -7 -4 -16 7 -8 10 -13 13 -9 7 3 -7 1 -13 -4
-13 -6 0 -11 5 -11 11 0 6 -9 4 -22 -5 -17 -12 -25 -13 -37 -3 -14 11 -14 10
-2 -6 8 -9 16 -15 19 -12 3 2 11 -3 19 -13 10 -12 12 -13 8 -2 -4 11 2 16 19
18 20 1 24 -2 19 -15 -4 -10 12 1 35 24 23 23 44 37 47 32 4 -5 16 -2 29 6 21
14 25 14 36 0 7 -8 16 -13 20 -10 13 8 20 -9 9 -25 -5 -9 -9 -10 -9 -3 0 6 -9
9 -22 5 -14 -3 -19 -1 -14 6 3 6 1 14 -5 18 -8 4 -9 3 -5 -4 4 -7 2 -12 -4
-12 -6 0 -9 -4 -6 -9 3 -4 -5 -7 -19 -6 -13 2 -31 -5 -39 -14 -11 -13 -12 -18
-4 -18 7 0 24 -3 37 -7 18 -6 22 -5 16 5 -5 8 -4 11 0 6 14 -12 13 -47 -2 -47
-8 0 -1 -12 16 -29 35 -34 39 -84 6 -76 -11 3 -14 2 -6 -1 11 -5 11 -8 0 -15
-7 -4 -11 -11 -8 -14 4 -3 28 15 55 39 27 25 43 45 36 46 -7 0 -10 5 -6 11 5
8 9 8 14 -1 5 -9 17 1 36 30 26 39 29 53 32 142 2 55 0 104 -6 111 -17 21 -69
198 -86 292 -9 50 -20 142 -26 205 -10 119 -14 839 -4 875 4 17 40 28 257 78
471 108 838 178 917 174 41 -2 45 -4 51 -32z m-6 -837 c3 -200 5 -484 3 -631
l-3 -268 -80 41 c-146 76 -294 207 -311 277 -12 46 14 58 131 58 l105 0 0 297
0 296 -84 41 c-58 28 -106 61 -157 109 l-73 69 179 28 c99 15 196 31 215 35
74 17 67 49 75 -352z m-1266 -875 c-8 -9 -16 -10 -22 -4 -13 13 0 31 19 24 11
-4 12 -8 3 -20z m-29 -63 c0 -5 -5 -10 -11 -10 -5 0 -7 5 -4 10 3 6 8 10 11
10 2 0 4 -4 4 -10z m100 -135 c-7 -8 -17 -15 -22 -15 -6 0 -5 7 2 15 7 8 17
15 22 15 6 0 5 -7 -2 -15z"/>
<path d="M2548 4169 c-10 -5 -18 -8 -18 -5 0 8 -79 -24 -108 -42 -21 -14 -21
-16 -7 -32 11 -12 13 -20 5 -25 -5 -3 -8 -11 -4 -16 3 -5 10 -7 15 -3 5 3 7
10 4 15 -4 5 1 9 9 9 8 0 17 4 21 9 3 6 -3 8 -14 6 -14 -3 -19 2 -18 16 1 20
63 50 110 52 14 1 24 4 22 8 -2 3 15 5 39 5 40 1 42 -1 39 -25 -2 -15 0 -19 4
-11 7 16 33 39 46 40 4 0 5 -11 3 -24 -3 -19 -1 -23 15 -19 13 4 19 0 19 -11
0 -11 -4 -14 -12 -10 -10 6 -10 5 -1 -8 7 -8 9 -19 5 -24 -4 -4 1 -2 11 5 24
19 29 10 12 -23 -13 -25 -13 -27 -1 -16 9 6 21 8 28 4 9 -5 8 -2 -2 10 -12 16
-12 19 5 29 37 21 89 9 79 -18 -4 -10 0 -15 12 -15 16 0 17 2 4 10 -13 8 -12
10 3 10 9 0 17 -3 17 -7 0 -5 11 -13 25 -20 36 -16 31 -1 -8 21 -186 107 -189
109 -267 112 -41 2 -83 -1 -92 -7z m185 -26 c-7 -2 -19 -2 -25 0 -7 3 -2 5 12
5 14 0 19 -2 13 -5z m57 -35 c0 -4 -5 -10 -11 -13 -11 -8 -40 25 -33 37 5 8
44 -13 44 -24z"/>
<path d="M2560 4119 c0 -11 4 -18 10 -14 5 3 7 12 3 20 -7 21 -13 19 -13 -6z"/>
<path d="M2590 4129 c0 -5 5 -7 10 -4 6 3 10 8 10 11 0 2 -4 4 -10 4 -5 0 -10
-5 -10 -11z"/>
<path d="M2336 4057 c-54 -54 -94 -129 -100 -189 -3 -24 -3 -35 0 -25 5 14 9
16 20 6 8 -6 17 -9 21 -5 3 3 0 6 -8 6 -12 0 -11 2 1 11 13 9 12 10 -2 5 -10
-3 -20 -1 -23 4 -4 6 -2 10 4 10 6 0 7 8 4 18 -6 14 -4 15 8 5 13 -10 16 -10
16 2 0 8 -5 11 -10 8 -6 -4 -8 1 -4 11 4 10 7 23 7 29 1 8 5 6 13 -3 14 -18
37 -24 37 -10 0 6 -8 10 -17 11 -11 0 -13 3 -5 6 6 2 12 9 12 15 0 6 -7 8 -15
4 -22 -8 -18 2 6 15 13 7 19 7 15 1 -3 -6 -2 -13 3 -16 11 -7 9 13 -2 32 -8
11 -2 16 16 13 5 -1 6 3 2 9 -4 6 11 18 34 28 22 9 39 21 38 26 -7 23 -29 14
-71 -27z"/>
<path d="M2510 4090 c8 -5 20 -10 25 -10 6 0 3 5 -5 10 -8 5 -19 10 -25 10 -5
0 -3 -5 5 -10z"/>
<path d="M2613 4073 c0 -7 4 -10 9 -7 4 3 8 0 8 -6 0 -8 6 -8 20 0 19 10 20 9
14 -14 -4 -16 -2 -26 5 -26 6 0 10 6 9 13 -2 6 3 11 10 10 6 -2 12 1 12 7 0 5
8 7 18 4 14 -5 14 -4 2 4 -8 6 -18 8 -22 5 -5 -2 -16 1 -24 8 -20 16 -61 18
-61 2z"/>
<path d="M2490 4070 c-9 -6 -10 -10 -3 -10 6 0 15 5 18 10 8 12 4 12 -15 0z"/>
<path d="M2800 4068 c0 -4 0 -11 0 -15 0 -15 23 -8 25 8 2 9 -4 16 -11 16 -8
0 -14 -4 -14 -9z"/>
<path d="M2587 4063 c-4 -3 -7 -11 -7 -17 0 -6 5 -5 12 2 6 6 9 14 7 17 -3 3
-9 2 -12 -2z"/>
<path d="M2379 4058 c-6 -21 -5 -37 2 -32 5 3 7 9 4 14 -3 4 1 11 7 13 10 4
10 6 1 6 -7 1 -13 0 -14 -1z"/>
<path d="M2811 4031 c-7 -5 -10 -14 -7 -20 4 -6 1 -11 -8 -11 -8 0 -16 6 -19
13 -3 6 -4 2 -4 -10 1 -12 5 -19 9 -17 4 3 8 -1 8 -8 0 -10 2 -10 9 1 5 7 14
10 21 6 9 -6 9 -3 1 13 -9 17 -8 23 6 31 10 6 14 10 8 11 -5 0 -16 -4 -24 -9z"/>
<path d="M2870 4010 c7 -23 5 -30 -5 -30 -8 0 -16 -4 -19 -9 -3 -4 5 -6 19 -4
23 5 44 33 25 33 -6 0 -10 9 -10 20 0 11 -4 20 -9 20 -6 0 -6 -12 -1 -30z"/>
<path d="M2409 4011 c-3 -7 -17 -13 -32 -15 -39 -4 -42 -12 -7 -20 17 -3 29
-10 25 -16 -4 -6 1 -7 11 -3 14 5 13 8 -7 20 -22 13 -22 13 -2 8 24 -7 36 5
24 24 -6 9 -10 10 -12 2z"/>
<path d="M2712 4016 c4 -5 3 -19 -3 -33 -5 -13 -5 -22 0 -19 15 9 20 46 8 53
-7 3 -9 3 -5 -1z"/>
<path d="M2543 3998 c1 -6 -9 -14 -23 -18 -24 -6 -24 -6 8 -13 17 -4 32 -12
32 -19 0 -9 -3 -9 -12 0 -7 7 -16 12 -22 12 -5 0 -1 -6 10 -14 24 -18 39 -5
25 22 -8 15 -8 21 1 24 7 3 6 7 -5 11 -10 4 -16 2 -14 -5z"/>
<path d="M2646 3991 c-13 -14 -14 -21 -5 -27 7 -4 10 -3 5 4 -3 6 2 15 11 21
10 5 15 12 12 15 -3 4 -14 -2 -23 -13z"/>
<path d="M2746 3993 c-6 -14 -5 -15 5 -6 7 7 10 15 7 18 -3 3 -9 -2 -12 -12z"/>
<path d="M2443 3984 c0 -7 9 -15 19 -17 15 -4 17 -3 8 8 -8 10 -7 14 2 18 7 3
4 5 -8 4 -11 -1 -21 -7 -21 -13z"/>
<path d="M2498 3993 c6 -2 18 -2 25 0 6 3 1 5 -13 5 -14 0 -19 -2 -12 -5z"/>
<path d="M2950 3965 c0 -8 4 -15 10 -15 5 0 7 7 4 15 -4 8 -8 15 -10 15 -2 0
-4 -7 -4 -15z"/>
<path d="M2340 3959 c0 -5 5 -7 10 -4 6 3 10 8 10 11 0 2 -4 4 -10 4 -5 0 -10
-5 -10 -11z"/>
<path d="M2490 3950 c-9 -6 -10 -10 -3 -10 6 0 15 5 18 10 8 12 4 12 -15 0z"/>
<path d="M2595 3950 c-3 -5 -1 -10 4 -10 6 0 11 5 11 10 0 6 -2 10 -4 10 -3 0
-8 -4 -11 -10z"/>
<path d="M2760 3956 c0 -2 9 -6 20 -9 11 -3 18 -1 14 4 -5 9 -34 13 -34 5z"/>
<path d="M2655 3940 c-3 -5 1 -10 10 -10 9 0 13 5 10 10 -3 6 -8 10 -10 10 -2
0 -7 -4 -10 -10z"/>
<path d="M2718 3943 c7 -3 16 -2 19 1 4 3 -2 6 -13 5 -11 0 -14 -3 -6 -6z"/>
<path d="M2388 3933 c7 -3 16 -2 19 1 4 3 -2 6 -13 5 -11 0 -14 -3 -6 -6z"/>
<path d="M2421 3910 c-6 -18 -6 -28 -1 -25 9 6 15 -9 11 -29 -1 -5 4 -4 12 2
8 7 16 11 18 9 3 -1 -3 5 -13 14 -20 20 -11 34 10 16 13 -10 14 -9 4 10 -19
35 -29 35 -41 3z"/>
<path d="M2745 3932 c-6 -6 4 -22 15 -22 4 0 10 6 13 13 5 13 -17 20 -28 9z"/>
<path d="M2500 3915 c0 -9 -4 -13 -10 -10 -5 3 -10 -1 -10 -9 0 -8 6 -18 13
-22 6 -4 9 -3 4 1 -4 5 0 16 9 26 10 11 12 19 5 24 -6 3 -11 -1 -11 -10z"/>
<path d="M2591 3921 c-8 -5 -20 -7 -28 -4 -16 6 -18 -23 -1 -33 7 -5 9 -2 6 8
-4 9 0 15 8 15 8 0 13 -6 10 -14 -4 -10 -1 -11 14 -3 11 6 17 16 14 25 -7 17
-5 17 -23 6z"/>
<path d="M2690 3919 c0 -6 -7 -9 -15 -6 -8 4 -17 1 -21 -5 -4 -6 -3 -8 4 -4
21 12 22 -13 1 -27 -13 -9 -16 -17 -10 -22 6 -3 11 -1 11 4 0 6 6 11 14 11 7
0 19 7 26 15 7 8 16 13 20 10 5 -3 6 5 2 17 l-5 22 -8 -22 c-10 -28 -23 -29
-14 -2 3 11 4 20 1 20 -3 0 -6 -5 -6 -11z"/>
<path d="M2293 3900 c-1 -11 2 -20 7 -20 4 0 7 7 6 15 -3 23 -12 26 -13 5z"/>
<path d="M2341 3906 c-9 -10 -7 -17 6 -27 16 -12 17 -12 6 2 -10 12 -10 18 -1
27 7 7 9 12 6 12 -3 0 -11 -6 -17 -14z"/>
<path d="M2376 3909 c3 -5 12 -9 21 -9 19 0 9 13 -12 16 -8 1 -13 -2 -9 -7z"/>
<path d="M2520 3891 c0 -6 4 -13 10 -16 6 -3 7 1 4 9 -7 18 -14 21 -14 7z"/>
<path d="M2740 3890 c0 -5 7 -7 15 -4 8 4 15 8 15 10 0 2 -7 4 -15 4 -8 0 -15
-4 -15 -10z"/>
<path d="M2352 3843 c-6 -12 -4 -26 4 -43 10 -18 14 -20 14 -8 0 9 -5 20 -10
23 -8 5 -7 11 1 21 6 8 9 17 6 20 -3 3 -10 -3 -15 -13z"/>
<path d="M2313 3835 c-3 -9 -3 -18 -1 -21 3 -3 8 4 11 16 6 23 -1 27 -10 5z"/>
<path d="M2515 3831 c-3 -11 -11 -19 -18 -17 -7 1 -9 1 -4 -1 4 -3 5 -9 1 -14
-3 -5 0 -9 5 -9 6 0 11 5 11 11 0 5 4 8 9 5 5 -3 9 6 9 19 0 30 -5 32 -13 6z"/>
<path d="M2920 3842 c0 -5 7 -9 15 -9 8 0 15 4 15 9 0 4 -7 8 -15 8 -8 0 -15
-4 -15 -8z"/>
<path d="M2383 3818 c2 -10 9 -24 16 -31 10 -9 12 -9 9 3 -2 8 3 14 10 13 6
-2 11 2 10 8 -2 6 3 14 11 17 8 2 11 0 7 -6 -3 -6 -2 -13 4 -17 5 -3 10 3 10
14 0 18 -6 21 -40 19 -32 -1 -39 -5 -37 -20z m22 3 c3 -5 2 -12 -3 -15 -5 -3
-9 1 -9 9 0 17 3 19 12 6z"/>
<path d="M2273 3815 c0 -8 4 -12 9 -9 4 3 8 9 8 15 0 5 -4 9 -8 9 -5 0 -9 -7
-9 -15z"/>
<path d="M2549 3814 c-7 -8 -6 -15 2 -20 8 -4 9 -3 5 4 -4 7 -3 12 3 12 5 0
12 -6 14 -12 4 -9 6 -7 6 3 1 18 31 22 31 3 0 -6 9 -14 20 -17 11 -3 20 -1 20
4 0 5 -7 9 -15 9 -8 0 -14 5 -12 12 3 17 -60 18 -74 2z"/>
<path d="M2917 3807 c-3 -9 -2 -19 4 -23 15 -9 18 -2 9 20 -6 17 -7 18 -13 3z"/>
<path d="M2231 3781 c-3 -76 64 -172 153 -219 47 -25 60 -27 161 -27 90 1 120
5 165 23 55 22 128 70 85 55 -20 -6 -20 -6 -1 15 11 12 16 22 11 22 -4 0 -13
-8 -20 -17 -12 -15 -16 -16 -39 -4 -14 8 -26 21 -26 28 0 8 5 11 12 7 7 -4 8
-3 4 4 -4 7 -3 12 2 12 5 0 12 9 15 20 3 11 1 20 -4 20 -5 0 -9 -7 -9 -15 0
-13 -4 -14 -21 -5 -11 7 -24 9 -27 5 -3 -3 4 -8 16 -12 12 -3 19 -9 17 -14 -3
-4 -11 -6 -18 -3 -7 2 -21 -4 -31 -15 -17 -19 -17 -20 3 -33 12 -7 21 -18 21
-25 0 -7 4 -13 10 -13 5 0 6 7 3 17 -4 11 -3 14 5 9 7 -4 12 -2 12 6 0 8 4 7
11 -4 5 -10 16 -15 24 -12 27 11 16 -5 -15 -21 -16 -8 -31 -15 -32 -14 -2 0
-16 -4 -31 -10 -39 -15 -40 -15 -59 19 -21 36 -38 39 -38 6 0 -13 -6 -27 -12
-29 -8 -3 -6 -6 5 -6 9 -1 17 5 17 13 0 8 5 18 12 22 6 4 8 3 4 -4 -3 -6 -2
-13 4 -17 6 -4 8 -10 5 -15 -7 -11 -155 -10 -155 0 0 4 -10 6 -22 6 -20 -1
-22 3 -20 37 3 28 0 37 -12 37 -9 0 -16 -5 -16 -11 0 -5 5 -7 11 -3 7 4 9 -2
7 -17 -2 -19 -8 -23 -27 -21 -39 6 -83 44 -77 66 3 14 2 16 -6 8 -17 -17 -46
27 -62 95 -8 32 -15 47 -15 34z m479 -126 c0 -8 0 -17 0 -20 0 -3 -3 -5 -7 -4
-5 1 -7 5 -5 10 1 5 -3 9 -9 9 -5 0 -7 5 -4 10 9 15 25 12 25 -5z"/>
<path d="M2508 3776 c-10 -7 -18 -18 -18 -24 0 -5 -7 -13 -16 -16 -9 -4 -14
-9 -11 -13 4 -3 14 0 22 7 12 10 19 10 27 2 7 -7 17 -12 23 -12 5 0 3 5 -5 10
-13 8 -12 10 3 10 10 0 15 5 12 11 -4 6 -14 8 -22 5 -9 -4 -13 -1 -10 6 2 7
10 12 16 11 6 -2 11 2 11 7 0 13 -11 12 -32 -4z"/>
<path d="M2760 3775 c0 -8 4 -15 10 -15 5 0 7 7 4 15 -4 8 -8 15 -10 15 -2 0
-4 -7 -4 -15z"/>
<path d="M2550 3770 c0 -5 5 -10 11 -10 5 0 7 5 4 10 -3 6 -8 10 -11 10 -2 0
-4 -4 -4 -10z"/>
<path d="M2592 3755 c3 -29 14 -45 31 -45 5 0 1 7 -8 16 -12 13 -13 19 -4 30
7 8 9 17 5 21 -3 3 -6 0 -6 -8 0 -12 -2 -11 -11 1 -8 12 -9 8 -7 -15z"/>
<path d="M2736 3763 c-6 -14 -5 -15 5 -6 7 7 10 15 7 18 -3 3 -9 -2 -12 -12z"/>
<path d="M2263 3763 c20 -5 22 -19 5 -26 -8 -4 -7 -6 3 -6 9 -1 19 5 22 13 4
9 14 12 26 9 12 -3 18 -9 16 -14 -3 -4 -13 -6 -23 -3 -15 5 -15 4 1 -6 13 -9
21 -8 33 5 20 19 23 17 26 -18 3 -30 18 -26 19 6 l0 22 9 -22 c5 -13 12 -23
15 -23 4 0 4 4 0 9 -3 5 0 15 7 23 17 17 21 38 8 38 -5 0 -10 -7 -10 -15 0
-13 -4 -14 -20 -5 -11 6 -20 7 -20 3 0 -4 -5 -1 -10 7 -7 12 -10 12 -10 1 0
-8 -6 -11 -17 -6 -10 3 -36 8 -58 10 -22 2 -32 1 -22 -2z"/>
<path d="M2664 3755 c-4 -8 -10 -12 -15 -9 -15 9 -10 -6 8 -24 16 -16 16 -16
10 1 -3 9 -2 17 3 17 6 0 10 -5 10 -11 0 -21 33 -3 35 19 1 16 -2 19 -9 12 -5
-5 -17 -10 -25 -10 -14 0 -14 1 -1 10 10 7 11 10 2 10 -7 0 -15 -7 -18 -15z"/>
<path d="M2746 3742 c-2 -4 4 -9 15 -9 11 -1 17 2 14 8 -7 11 -22 12 -29 1z"/>
<path d="M2800 3726 c15 -15 12 -30 -4 -17 -10 8 -16 9 -21 1 -4 -6 -1 -9 6
-8 7 2 14 -6 16 -17 3 -17 2 -18 -7 -5 -9 12 -11 12 -8 1 7 -24 28 -25 28 -1
0 12 4 19 9 16 4 -3 6 5 4 18 -3 12 -11 23 -19 23 -10 0 -11 -4 -4 -11z"/>
<path d="M2277 3709 c7 -9 11 -18 8 -20 -2 -3 5 -5 15 -5 11 0 22 6 24 13 3 7
-1 10 -10 6 -8 -3 -22 1 -32 8 -15 12 -16 12 -5 -2z"/>
<path d="M2551 3711 c-10 -7 -7 -9 12 -8 14 1 23 5 20 10 -6 9 -15 9 -32 -2z"/>
<path d="M2488 3693 c7 -3 16 -2 19 1 4 3 -2 6 -13 5 -11 0 -14 -3 -6 -6z"/>
<path d="M2630 3696 c0 -2 9 -6 20 -9 11 -3 18 -1 14 4 -5 9 -34 13 -34 5z"/>
<path d="M2335 3680 c-3 -6 1 -7 9 -4 18 7 21 14 7 14 -6 0 -13 -4 -16 -10z"/>
<path d="M2566 3681 c-4 -5 3 -7 14 -4 23 6 26 13 6 13 -8 0 -17 -4 -20 -9z"/>
<path d="M2390 3676 c0 -2 7 -7 16 -10 8 -3 12 -2 9 4 -6 10 -25 14 -25 6z"/>
<path d="M2494 3672 c4 -7 1 -12 -8 -12 -8 0 -17 -4 -20 -9 -4 -5 3 -7 14 -4
26 7 34 19 19 29 -8 4 -9 3 -5 -4z"/>
<path d="M2615 3670 c-4 -6 -10 -8 -15 -5 -4 3 -11 -7 -14 -20 -4 -14 -10 -23
-15 -21 -5 3 -8 -2 -7 -12 0 -9 -5 -16 -12 -14 -8 1 -11 -2 -7 -8 3 -5 -2 -10
-12 -11 -16 0 -16 -1 2 -8 19 -8 52 6 41 17 -10 10 25 63 37 56 7 -4 9 -4 5 1
-4 4 -3 14 3 22 6 7 9 13 6 13 -3 0 -9 -5 -12 -10z"/>
<path d="M2345 3660 c-16 -7 -17 -9 -3 -9 9 -1 20 4 23 9 7 11 7 11 -20 0z"/>
<path d="M2532 3635 c-6 -14 -10 -25 -8 -25 2 0 11 11 20 25 9 14 13 25 8 25
-5 0 -14 -11 -20 -25z"/>
<path d="M2330 3630 c0 -5 5 -10 11 -10 5 0 7 5 4 10 -3 6 -8 10 -11 10 -2 0
-4 -4 -4 -10z"/>
<path d="M2640 3624 c0 -3 6 -12 14 -20 15 -15 30 -5 18 11 -8 11 -32 18 -32
9z"/>
<path d="M2365 3610 c3 -5 8 -10 11 -10 2 0 4 5 4 10 0 6 -5 10 -11 10 -5 0
-7 -4 -4 -10z"/>
<path d="M2490 3570 c-13 -8 -12 -10 3 -10 9 0 17 5 17 10 0 12 -1 12 -20 0z"/>
<path d="M6581 6127 c-14 -6 -34 -27 -44 -45 -52 -89 64 -188 161 -138 101 52
63 196 -51 196 -23 0 -53 -6 -66 -13z"/>
<path d="M4930 5628 l0 -498 100 0 100 0 0 165 0 165 28 30 27 30 145 -192
146 -193 133 -3 133 -3 -39 48 c-112 136 -354 465 -350 476 3 7 87 113 186
237 100 124 181 227 181 230 0 3 -55 4 -122 3 l-123 -1 -169 -209 c-92 -114
-171 -209 -175 -211 -3 -1 -6 93 -6 209 l0 211 -98 1 -97 2 0 -497z"/>
<path d="M7690 5628 l0 -498 94 0 95 0 3 228 c3 199 5 231 21 255 43 67 135
87 198 44 60 -40 64 -58 67 -304 l4 -223 94 0 94 0 0 230 c0 127 -5 252 -11
280 -15 68 -64 138 -123 175 -46 28 -57 30 -141 30 -86 0 -95 -2 -144 -32 -29
-18 -53 -33 -54 -33 -1 0 -3 77 -4 171 l-2 171 -95 1 -96 2 0 -497z"/>
<path d="M8645 6038 c-22 -5 -57 -14 -77 -19 l-38 -10 0 -84 0 -85 -70 0 -70
0 0 -85 0 -85 70 0 70 0 0 -176 c0 -206 8 -242 65 -299 50 -50 98 -65 209 -65
l86 0 0 85 0 85 -64 0 c-58 0 -67 3 -85 26 -19 24 -21 40 -21 185 l0 159 93 0
92 0 -2 82 -1 83 -91 3 -91 3 0 104 c0 117 4 113 -75 93z"/>
<path d="M6042 5835 c-17 -8 -47 -26 -66 -40 -36 -27 -39 -26 -50 18 -6 27 -7
27 -86 27 l-80 0 0 -355 0 -355 100 0 100 0 0 228 c0 196 2 232 18 262 33 67
129 90 193 47 64 -42 69 -65 69 -314 l0 -223 96 0 95 0 -3 258 c-3 246 -4 259
-27 310 -26 58 -74 105 -135 133 -50 23 -175 25 -224 4z"/>
<path d="M7070 5841 c-92 -29 -196 -124 -224 -208 -52 -151 -16 -308 94 -406
123 -111 302 -117 408 -15 l42 42 0 -65 c0 -113 -52 -181 -152 -199 -54 -10
-116 5 -160 41 -33 26 -44 29 -107 29 l-71 0 0 -80 c0 -78 1 -81 23 -78 12 2
53 -12 90 -31 60 -30 79 -35 166 -39 82 -4 111 -1 169 17 87 26 159 87 199
169 l28 57 0 380 0 380 -87 3 -88 3 0 -36 0 -36 -35 27 c-19 14 -52 32 -72 40
-41 14 -182 17 -223 5z m207 -166 c82 -34 117 -96 111 -195 -3 -55 -9 -74 -31
-104 -73 -95 -187 -109 -274 -33 -46 41 -63 82 -63 155 0 139 132 229 257 177z"/>
<path d="M6540 5485 l0 -355 100 0 100 0 0 355 0 355 -100 0 -100 0 0 -355z"/>
<path d="M7444 4856 c-26 -26 -34 -42 -34 -71 0 -29 8 -45 34 -71 29 -29 41
-34 81 -34 40 0 52 5 81 34 26 26 34 42 34 71 0 29 -8 45 -34 71 -29 29 -41
34 -81 34 -40 0 -52 -5 -81 -34z"/>
<path d="M4920 4375 l0 -495 100 0 100 0 0 338 0 337 118 -230 118 -230 59 -2
60 -2 115 232 115 232 3 -338 2 -337 95 0 95 0 0 495 0 496 -120 -3 -120 -3
-122 -252 -121 -252 -55 112 c-30 62 -85 176 -122 255 l-69 142 -125 0 -126 0
0 -495z"/>
<path d="M6924 4582 c-89 -31 -138 -83 -150 -159 -19 -129 56 -205 250 -254
100 -25 136 -48 136 -88 0 -92 -135 -111 -212 -30 l-37 39 -81 0 -80 0 6 -27
c29 -121 127 -192 276 -201 230 -14 376 138 292 305 -33 67 -88 102 -224 143
-127 37 -150 51 -150 89 0 36 18 51 68 58 55 7 108 -13 140 -53 27 -34 28 -34
106 -34 l79 0 -7 31 c-17 86 -84 159 -170 184 -67 20 -179 19 -242 -3z"/>
<path d="M7951 4584 c-171 -62 -267 -223 -241 -404 18 -127 93 -229 208 -283
60 -29 76 -32 162 -32 84 0 102 3 158 29 87 40 155 120 176 209 l6 27 -92 0
-93 -1 -20 -32 c-61 -97 -219 -83 -285 25 -63 104 -14 262 95 303 67 26 126
14 176 -36 l39 -39 86 0 c84 0 85 0 79 23 -27 89 -90 162 -174 200 -62 28
-217 34 -280 11z"/>
<path d="M6020 4339 c0 -270 7 -314 59 -386 45 -62 107 -88 211 -88 74 0 92 4
145 30 33 17 63 31 67 33 3 2 8 -7 10 -20 3 -22 8 -23 86 -26 l82 -3 0 354 0
355 -92 -2 -93 -1 -5 -237 c-5 -218 -7 -239 -25 -264 -62 -82 -177 -81 -232 3
-16 24 -18 58 -21 263 l-4 236 -94 -1 -94 0 0 -246z"/>
<path d="M7424 4581 c-2 -3 -4 -161 -4 -353 l1 -348 99 0 100 0 0 355 0 355
-95 -2 c-53 -1 -98 -4 -101 -7z"/>
</g>
</svg>
